<svg width="107" height="16" viewBox="0 0 107 16" fill="none" xmlns="http://www.w3.org/2000/svg">
<g clip-path="url(#clip0_885_15289)">
<path d="M72.3898 6.33153L63.5542 5.9599C61.9769 5.9599 61.3603 5.25519 61.3603 4.25769V4.13909C61.3603 3.26412 61.9469 2.63385 62.9481 2.63385H75.9278L77.1405 -1.49012e-08H62.7081C58.7928 0.0299077 56.2376 1.91631 56.2376 4.74999V4.79553V4.96706C56.2376 7.80073 58.5826 9.40129 61.9282 9.43115L70.7071 9.76832C72.2843 9.76832 72.901 10.4817 72.901 11.4916V11.611C72.901 12.4967 72.3145 13.1349 71.3132 13.1349V13.1354H56.4088V15.7692H71.5531C75.4443 15.7692 78.0803 13.8529 78.0803 11.0192V10.8594C78.0803 8.02572 75.8636 6.47135 72.3898 6.33153ZM101.802 6.29879C101.802 7.05572 101.195 7.66938 100.445 7.66938H90.3156V2.61735H100.445C101.195 2.61735 101.802 3.23089 101.802 3.98789V6.29879ZM100.117 -1.49012e-08H85.5766V15.768H90.3156V10.1416H100.117C104.238 10.1416 106.543 8.47755 106.543 5.23259V4.90898C106.543 1.664 104.238 -1.49012e-08 100.117 -1.49012e-08ZM5.53059 10.7171V5.07884C5.53059 3.83563 6.52908 2.82782 7.76075 2.82782H19.9214L21.2382 -1.49012e-08H9.84988C3.82646 -1.49012e-08 0.457275 2.71015 0.457275 7.36293V8.4051C0.457275 13.0578 3.82646 15.768 9.84988 15.768H21.6333V12.9681H7.76075C6.52908 12.9681 5.53059 11.9603 5.53059 10.7171ZM44.3045 10.7171C44.3045 11.9603 43.3061 12.9681 42.0744 12.9681H34.2629C33.0312 12.9681 32.0328 11.9603 32.0328 10.7171V-1.49012e-08H27.4249V8.63707C27.4249 13.2899 30.7941 16 36.8175 16H39.5198C45.5434 16 48.9124 13.2899 48.9124 8.63707V-1.49012e-08H44.3045V10.7171Z" fill="black"/>
</g>
<defs>
<clipPath id="clip0_885_15289">
<rect width="107" height="16" fill="white"/>
</clipPath>
</defs>
</svg>
