<svg width="195" height="29" viewBox="0 0 195 29" fill="none" xmlns="http://www.w3.org/2000/svg">
<path d="M80.2101 19.4263C80.2101 21.6792 78.3832 23.506 76.1303 23.506H61.8411C59.5882 23.506 57.7613 21.6792 57.7613 19.4263V0.0022306H49.3319V15.6566C49.3319 24.0882 55.495 29 66.5142 29H71.4572C82.4764 29 88.6395 24.0882 88.6395 15.6566V0.0022306H80.2101V19.4263ZM9.28152 19.4263V9.20791C9.28152 6.955 11.1084 5.12814 13.3613 5.12814H35.607L38.0138 0.0022306H17.1823C6.16314 0.0022306 0 4.91401 0 13.3457V15.235C0 23.6666 6.16314 28.5784 17.1823 28.5784H38.7366V23.5038H13.3613C11.1084 23.5038 9.28152 21.6769 9.28152 19.424V19.4263ZM182.307 0.0022306H155.709V28.5806H164.377V18.3824H182.307C189.846 18.3824 194.062 15.3666 194.062 9.4845V8.89785C194.062 3.01577 189.844 0 182.307 0V0.0022306ZM185.389 11.4184C185.389 12.7902 184.276 13.9033 182.905 13.9033H164.375V4.74671H182.905C184.276 4.74671 185.389 5.85978 185.389 7.2316V11.4207V11.4184ZM131.585 11.4764L115.422 10.8028C112.536 10.8028 111.409 9.52465 111.409 7.71787V7.50373C111.409 5.91778 112.482 4.77571 114.314 4.77571H138.058L140.278 0.0022306H113.876C106.714 0.0557649 102.041 3.47527 102.041 8.61011V9.00269C102.041 14.1375 106.33 17.0395 112.451 17.0931L128.511 17.7043C131.398 17.7043 132.524 18.998 132.524 20.8271V21.0435C132.524 22.6495 131.451 23.8049 129.62 23.8049H102.355V28.5784H130.059C137.177 28.5784 142 25.1054 142 19.9705V19.6806C142 14.5457 137.945 11.7285 131.59 11.4742L131.585 11.4764Z" fill="white"/>
</svg>
