<svg width="24" height="24" viewBox="0 0 24 24" fill="none" xmlns="http://www.w3.org/2000/svg">
<path d="M16.1511 7.85167L16.1211 7.82167C15.1405 6.84072 13.842 6.24185 12.4593 6.13279C11.0765 6.02373 9.70024 6.41163 8.57796 7.22672C7.45567 8.04181 6.66104 9.23059 6.33699 10.5793C6.01295 11.9279 6.18076 13.348 6.81023 14.5839L7.0666 15.0885L6.58932 17.4067L6.58251 17.4367L8.88569 16.8912L9.41069 17.1571C10.5031 17.6998 11.738 17.8864 12.942 17.6907C14.1459 17.495 15.2582 16.9269 16.1225 16.0662C17.2096 14.979 17.8228 13.506 17.8285 11.9685C17.8341 10.431 17.2316 8.95366 16.1525 7.85849L16.1511 7.85167ZM15.9166 14.3589C15.6343 14.8035 15.1884 15.3462 14.628 15.4812C13.6461 15.7199 12.1393 15.4894 10.2643 13.7426L10.2411 13.7208C8.59251 12.1935 8.16432 10.9212 8.26796 9.91213C8.32523 9.33803 8.80251 8.82122 9.20478 8.48167C9.26849 8.42767 9.34391 8.38927 9.42505 8.36951C9.5062 8.34975 9.59083 8.34918 9.67224 8.36784C9.75364 8.3865 9.82957 8.42389 9.894 8.47702C9.95844 8.53016 10.0096 8.59758 10.0434 8.67394L10.6502 10.0458C10.69 10.1341 10.7047 10.2317 10.693 10.3278C10.6812 10.424 10.6433 10.5151 10.5834 10.5912L10.2766 10.9894C10.2124 11.071 10.1736 11.1698 10.1651 11.2734C10.1566 11.3769 10.1788 11.4807 10.2289 11.5717C10.4007 11.8717 10.8125 12.3149 11.2693 12.7267C11.7821 13.1889 12.3507 13.613 12.7107 13.7589C12.8072 13.7976 12.9131 13.8067 13.0148 13.7851C13.1165 13.7635 13.2095 13.7121 13.2821 13.6376L13.638 13.2789C13.7066 13.2112 13.792 13.1629 13.8855 13.139C13.9789 13.115 14.077 13.1163 14.1698 13.1426L15.6111 13.5517C15.6909 13.576 15.7639 13.6183 15.8248 13.6753C15.8856 13.7322 15.9325 13.8024 15.962 13.8803C15.9915 13.9583 16.0028 14.0419 15.9949 14.1249C15.987 14.2079 15.9602 14.2879 15.9166 14.3589Z" fill="white"/>
<path d="M20.7273 0H3.27273C2.40475 0 1.57232 0.344804 0.95856 0.95856C0.344804 1.57232 0 2.40475 0 3.27273L0 20.7273C0 21.5953 0.344804 22.4277 0.95856 23.0414C1.57232 23.6552 2.40475 24 3.27273 24H20.7273C21.5953 24 22.4277 23.6552 23.0414 23.0414C23.6552 22.4277 24 21.5953 24 20.7273V3.27273C24 2.40475 23.6552 1.57232 23.0414 0.95856C22.4277 0.344804 21.5953 0 20.7273 0ZM19.4359 12.1773C19.3957 13.4231 19.0431 14.6388 18.4107 15.7129C17.7782 16.787 16.886 17.685 15.8161 18.3245C14.7462 18.9639 13.5328 19.3244 12.2873 19.3728C11.0417 19.4212 9.80403 19.1559 8.68773 18.6014L4.93091 19.4918C4.87397 19.5051 4.81435 19.5009 4.75985 19.4797C4.70536 19.4585 4.65851 19.4214 4.62545 19.3732C4.60314 19.3412 4.58764 19.3049 4.57989 19.2667C4.57215 19.2285 4.57234 19.1891 4.58045 19.1509L5.37 15.3177C4.85501 14.3065 4.57817 13.1908 4.56067 12.0561C4.54316 10.9214 4.78546 9.79779 5.26902 8.77114C5.75258 7.7445 6.46459 6.84208 7.35055 6.13293C8.23652 5.42378 9.27297 4.9267 10.3806 4.67973C11.4882 4.43275 12.6377 4.44243 13.741 4.70801C14.8443 4.9736 15.8722 5.48806 16.7461 6.21202C17.62 6.93598 18.3167 7.85027 18.783 8.88491C19.2492 9.91955 19.4725 11.0471 19.4359 12.1814V12.1773Z" fill="white"/>
</svg>
