<svg width="32" height="32" viewBox="0 0 32 32" fill="none" xmlns="http://www.w3.org/2000/svg">
<path d="M24 0H8C3.584 0 0 3.584 0 8V24C0 28.416 3.584 32 8 32H24C28.416 32 32 28.416 32 24V8C32 3.584 28.416 0 24 0ZM16 24C11.584 24 8 20.416 8 16C8 11.584 11.584 8 16 8C20.416 8 24 11.584 24 16C24 20.416 20.416 24 16 24ZM24.56 8.992C23.68 8.992 22.96 8.272 22.96 7.392C22.96 6.512 23.68 5.792 24.56 5.792C25.44 5.792 26.16 6.512 26.16 7.392C26.16 8.272 25.44 8.992 24.56 8.992Z" fill="white"/>
<path d="M16 20C18.2091 20 20 18.2091 20 16C20 13.7909 18.2091 12 16 12C13.7909 12 12 13.7909 12 16C12 18.2091 13.7909 20 16 20Z" fill="white"/>
</svg>
