<svg width="24" height="24" viewBox="0 0 24 24" fill="none" xmlns="http://www.w3.org/2000/svg">
<path d="M17.9667 0.00830078H6.01427C2.70262 0.00830078 0 2.71092 0 6.02257V17.994C0 21.2866 2.70262 23.9893 6.01427 23.9893H17.9857C21.2974 23.9893 24 21.2866 24 17.975V6.02257C23.981 2.71092 21.2784 0.00830078 17.9667 0.00830078ZM7.99366 19.4215H4.5678V9.52456H7.99366V19.4215ZM6.2617 8.00196C5.29104 8.00196 4.51071 7.22162 4.51071 6.25096C4.51071 5.28031 5.29104 4.49997 6.2617 4.49997C7.23236 4.49997 8.01269 5.28031 8.01269 6.25096C7.99366 7.22162 7.21332 8.00196 6.2617 8.00196ZM19.4322 19.4215H19.4132H16.5583V14.6253C16.5583 13.4643 16.406 11.9798 14.8263 11.9798C13.2086 11.9798 12.9421 13.2359 12.9421 14.5491V19.4215H10.0872V9.52456H12.7518V10.8568H12.8279C13.2466 10.0955 14.2173 9.50552 15.7399 9.50552C18.8803 9.50552 19.4322 11.3136 19.4322 13.9972V19.4215Z" fill="white"/>
</svg>
