<svg width="32" height="32" viewBox="0 0 32 32" fill="none" xmlns="http://www.w3.org/2000/svg">
<path d="M23.9556 0.0112305H8.01903C3.60349 0.0112305 0 3.61472 0 8.03026V23.9922C0 28.3824 3.60349 31.9859 8.01903 31.9859H23.981C28.3965 31.9859 32 28.3824 32 23.9668V8.03026C31.9746 3.61472 28.3711 0.0112305 23.9556 0.0112305ZM10.6582 25.8954H6.0904V12.6996H10.6582V25.8954ZM8.34893 10.6694C7.05472 10.6694 6.01428 9.62899 6.01428 8.33478C6.01428 7.04057 7.05472 6.00013 8.34893 6.00013C9.64314 6.00013 10.6836 7.04057 10.6836 8.33478C10.6582 9.62899 9.61776 10.6694 8.34893 10.6694ZM25.9096 25.8954H25.8842H22.0777V19.5005C22.0777 17.9525 21.8747 15.9732 19.7684 15.9732C17.6114 15.9732 17.2561 17.648 17.2561 19.399V25.8954H13.4496V12.6996H17.0024V14.4759H17.1039C17.6622 13.4609 18.9564 12.6742 20.9865 12.6742C25.1737 12.6742 25.9096 15.085 25.9096 18.6631V25.8954Z" fill="white"/>
</svg>
