<svg width="36" height="36" viewBox="0 0 36 36" fill="none" xmlns="http://www.w3.org/2000/svg">
<path d="M24.2248 11.7773L24.1798 11.7323C22.7088 10.2608 20.7611 9.36253 18.687 9.19894C16.6129 9.03535 14.5484 9.61719 12.865 10.8398C11.1815 12.0625 9.9896 13.8456 9.50354 15.8686C9.01747 17.8916 9.26918 20.0217 10.2134 21.8757L10.5979 22.6325L9.88203 26.1098L9.87181 26.1548L13.3266 25.3366L14.1141 25.7354C15.7526 26.5494 17.6051 26.8294 19.411 26.5358C21.2169 26.2423 22.8854 25.3901 24.1818 24.0991C25.8125 22.4682 26.7323 20.2588 26.7407 17.9526C26.7492 15.6463 25.8455 13.4302 24.2268 11.7875L24.2248 11.7773ZM23.8729 21.5382C23.4495 22.205 22.7807 23.0191 21.94 23.2216C20.4673 23.5795 18.207 23.2339 15.3945 20.6136L15.3598 20.5809C12.8868 18.29 12.2445 16.3816 12.4 14.8679C12.4859 14.0068 13.2018 13.2316 13.8052 12.7223C13.9008 12.6413 14.0139 12.5837 14.1356 12.554C14.2573 12.5244 14.3843 12.5235 14.5064 12.5515C14.6285 12.5795 14.7424 12.6356 14.8391 12.7153C14.9357 12.795 15.0124 12.8961 15.0632 13.0107L15.9734 15.0684C16.033 15.2009 16.0552 15.3472 16.0375 15.4915C16.0198 15.6357 15.963 15.7724 15.8732 15.8866L15.4129 16.4839C15.3166 16.6063 15.2584 16.7545 15.2457 16.9098C15.2329 17.0651 15.2662 17.2207 15.3414 17.3573C15.5991 17.8073 16.2168 18.472 16.902 19.0898C17.6711 19.7832 18.5241 20.4193 19.0641 20.6382C19.2089 20.6961 19.3677 20.7098 19.5203 20.6773C19.6728 20.6449 19.8124 20.5679 19.9211 20.4561L20.455 19.9182C20.558 19.8166 20.6861 19.7441 20.8262 19.7082C20.9664 19.6723 21.1135 19.6742 21.2527 19.7136L23.4148 20.3273C23.5343 20.3638 23.6439 20.4272 23.7352 20.5126C23.8264 20.5981 23.8969 20.7033 23.9411 20.8202C23.9853 20.9372 24.0022 21.0627 23.9904 21.1871C23.9786 21.3116 23.9384 21.4317 23.8729 21.5382Z" fill="white"/>
<path d="M31.0909 0H4.90909C3.60712 0 2.35847 0.517206 1.43784 1.43784C0.517206 2.35847 0 3.60712 0 4.90909L0 31.0909C0 32.3929 0.517206 33.6415 1.43784 34.5622C2.35847 35.4828 3.60712 36 4.90909 36H31.0909C32.3929 36 33.6415 35.4828 34.5622 34.5622C35.4828 33.6415 36 32.3929 36 31.0909V4.90909C36 3.60712 35.4828 2.35847 34.5622 1.43784C33.6415 0.517206 32.3929 0 31.0909 0ZM29.1539 18.2659C29.0935 20.1346 28.5647 21.9582 27.616 23.5694C26.6673 25.1805 25.3291 26.5275 23.7242 27.4867C22.1193 28.4459 20.2992 28.9866 18.4309 29.0592C16.5626 29.1318 14.706 28.7339 13.0316 27.902L7.39636 29.2377C7.31095 29.2576 7.22153 29.2513 7.13978 29.2195C7.05803 29.1878 6.98777 29.1321 6.93818 29.0598C6.90471 29.0118 6.88145 28.9574 6.86984 28.9001C6.85823 28.8427 6.85852 28.7836 6.87068 28.7264L8.055 22.9766C7.28251 21.4597 6.86725 19.7862 6.841 18.0842C6.81474 16.3822 7.17819 14.6967 7.90353 13.1567C8.62887 11.6167 9.69688 10.2631 11.0258 9.19939C12.3548 8.13567 13.9095 7.39005 15.5709 7.01959C17.2323 6.64913 18.9565 6.66364 20.6115 7.06202C22.2664 7.4604 23.8083 8.23209 25.1192 9.31803C26.4301 10.404 27.4751 11.7754 28.1744 13.3274C28.8737 14.8793 29.2088 16.5707 29.1539 18.2659Z" fill="white"/>
</svg>
