<svg width="36" height="36" viewBox="0 0 36 36" fill="none" xmlns="http://www.w3.org/2000/svg">
<path d="M31.0909 0H4.90909C3.60712 0 2.35847 0.517206 1.43784 1.43784C0.517206 2.35847 0 3.60712 0 4.90909L0 31.0909C0 32.3929 0.517206 33.6415 1.43784 34.5622C2.35847 35.4828 3.60712 36 4.90909 36H31.0909C32.3929 36 33.6415 35.4828 34.5622 34.5622C35.4828 33.6415 36 32.3929 36 31.0909V4.90909C36 3.60712 35.4828 2.35847 34.5622 1.43784C33.6415 0.517206 32.3929 0 31.0909 0Z" fill="white"/>
<path d="M26.0957 10.7539H9.90416C9.62865 10.754 9.35732 10.8213 9.11366 10.9499C8.87001 11.0785 8.66139 11.2646 8.50586 11.492L16.6008 17.2319C17.0098 17.5209 17.4983 17.6761 17.9991 17.6761C18.4999 17.6761 18.9884 17.5209 19.3974 17.2319L27.4915 11.492C27.3362 11.265 27.1279 11.0791 26.8848 10.9505C26.6416 10.8219 26.3708 10.7544 26.0957 10.7539Z" fill="#1A110A"/>
<path d="M20.098 18.219C19.4844 18.6534 18.7511 18.8867 17.9992 18.8867C17.2474 18.8867 16.5141 18.6534 15.9005 18.219L8.20898 12.7656V23.5504C8.20898 23.9999 8.38756 24.431 8.70541 24.7489C9.02327 25.0667 9.45438 25.2453 9.9039 25.2453H26.0954C26.5449 25.2453 26.9761 25.0667 27.2939 24.7489C27.6118 24.431 27.7903 23.9999 27.7903 23.5504V12.7656L20.098 18.219Z" fill="#1A110A"/>
</svg>
