<svg width="32" height="32" viewBox="0 0 32 32" fill="none" xmlns="http://www.w3.org/2000/svg">
<path d="M21.5349 10.4687L21.4949 10.4287C20.1874 9.12079 18.4561 8.32231 16.6124 8.17689C14.7687 8.03147 12.9337 8.54867 11.4373 9.63546C9.94089 10.7222 8.88138 12.3073 8.44932 14.1055C8.01727 15.9037 8.24101 17.7971 9.08031 19.4451L9.42213 20.1178L8.78577 23.2087L8.77667 23.2487L11.8476 22.5215L12.5476 22.876C14.0041 23.5996 15.6507 23.8484 17.256 23.5875C18.8612 23.3266 20.3443 22.569 21.4967 21.4215C22.9462 19.9718 23.7638 18.0079 23.7713 15.9579C23.7788 13.9079 22.9755 11.938 21.5367 10.4778L21.5349 10.4687ZM21.2221 19.1451C20.8458 19.7378 20.2512 20.4615 19.5039 20.6415C18.1949 20.9596 16.1858 20.6524 13.6858 18.3233L13.6549 18.2942C11.4567 16.2578 10.8858 14.5615 11.0239 13.216C11.1003 12.4506 11.7367 11.7615 12.273 11.3087C12.358 11.2367 12.4585 11.1855 12.5667 11.1592C12.6749 11.1328 12.7878 11.1321 12.8963 11.157C13.0049 11.1818 13.1061 11.2317 13.192 11.3025C13.2779 11.3734 13.3461 11.4633 13.3912 11.5651L14.2003 13.3942C14.2533 13.512 14.273 13.6421 14.2573 13.7703C14.2416 13.8985 14.1911 14.0199 14.1112 14.1215L13.7021 14.6524C13.6165 14.7612 13.5648 14.8929 13.5534 15.031C13.5421 15.169 13.5717 15.3074 13.6385 15.4287C13.8676 15.8287 14.4167 16.4196 15.0258 16.9687C15.7094 17.5851 16.4676 18.1506 16.9476 18.3451C17.0763 18.3966 17.2174 18.4087 17.3531 18.3799C17.4887 18.3511 17.6127 18.2827 17.7094 18.1833L18.1839 17.7051C18.2755 17.6148 18.3894 17.5504 18.5139 17.5185C18.6385 17.4865 18.7693 17.4882 18.893 17.5233L20.8149 18.0687C20.9211 18.1012 21.0186 18.1575 21.0997 18.2335C21.1808 18.3095 21.2434 18.403 21.2827 18.5069C21.322 18.6109 21.337 18.7224 21.3265 18.8331C21.316 18.9437 21.2803 19.0504 21.2221 19.1451Z" fill="white"/>
<path d="M31.499 8C31.499 3.58172 27.9172 0 23.499 0H8C3.58172 0 0 3.58172 0 8V24C0 28.4183 3.58172 32 8 32H23.499C27.9172 32 31.499 28.4183 31.499 24V8ZM25.9135 16.2364C25.8598 17.8974 25.3898 19.5184 24.5465 20.9505C23.7032 22.3826 22.5137 23.58 21.0871 24.4326C19.6606 25.2852 18.0427 25.7659 16.382 25.8304C14.7213 25.8949 13.071 25.5412 11.5826 24.8018L6.5735 25.9891C6.49758 26.0068 6.41809 26.0011 6.34542 25.9729C6.27276 25.9447 6.2103 25.8952 6.16622 25.8309C6.13647 25.7882 6.1158 25.7399 6.10548 25.689C6.09516 25.638 6.09541 25.5854 6.10622 25.5345L7.15895 20.4236C6.47229 19.0753 6.10317 17.5878 6.07984 16.0749C6.0565 14.5619 6.37957 13.0637 7.02431 11.6949C7.66906 10.326 8.6184 9.12277 9.79969 8.17724C10.981 7.23171 12.3629 6.56893 13.8398 6.23963C15.3166 5.91034 16.8492 5.92324 18.3203 6.27735C19.7913 6.63147 21.1619 7.31741 22.3271 8.2827C23.4923 9.24798 24.4213 10.467 25.0429 11.8465C25.6645 13.2261 25.9623 14.7295 25.9135 16.2418V16.2364Z" fill="white"/>
</svg>
