<svg width="24" height="24" viewBox="0 0 24 24" fill="none" xmlns="http://www.w3.org/2000/svg">
<path d="M18 0H6C2.688 0 0 2.688 0 6V18C0 21.312 2.688 24 6 24H18C21.312 24 24 21.312 24 18V6C24 2.688 21.312 0 18 0ZM12 18C8.688 18 6 15.312 6 12C6 8.688 8.688 6 12 6C15.312 6 18 8.688 18 12C18 15.312 15.312 18 12 18ZM18.42 6.744C17.76 6.744 17.22 6.204 17.22 5.544C17.22 4.884 17.76 4.344 18.42 4.344C19.08 4.344 19.62 4.884 19.62 5.544C19.62 6.204 19.08 6.744 18.42 6.744Z" fill="white"/>
<path d="M12 15C13.6569 15 15 13.6569 15 12C15 10.3431 13.6569 9 12 9C10.3431 9 9 10.3431 9 12C9 13.6569 10.3431 15 12 15Z" fill="white"/>
</svg>
