<svg width="24" height="24" viewBox="0 0 24 24" fill="none" xmlns="http://www.w3.org/2000/svg">
<g>
<path d="M2.01172 11.5004H7.50425C7.55471 8.88797 7.99882 6.51353 8.70676 4.74367C9.08264 3.80399 9.54271 3.00999 10.0792 2.44273C10.1872 2.32848 10.2998 2.22209 10.4166 2.125C5.80637 2.85814 2.24603 6.742 2.01172 11.5004Z" fill="url(#paint_globe)"/>
<path d="M2.01172 12.5004C2.24603 17.2589 5.80637 21.1427 10.4166 21.8759C10.2998 21.7788 10.1872 21.6724 10.0792 21.5581C9.54271 20.9909 9.08264 20.1969 8.70676 19.2572C7.99882 17.4873 7.55471 15.1129 7.50425 12.5004H2.01172Z" fill="url(#paint_globe)"/>
<path d="M13.5823 21.8759C18.1925 21.1427 21.7528 17.2589 21.9872 12.5004H16.4946C16.4441 15.1129 16 17.4873 15.2921 19.2572C14.9162 20.1969 14.4561 20.9909 13.9197 21.5581C13.8116 21.6724 13.6991 21.7788 13.5823 21.8759Z" fill="url(#paint_globe)"/>
<path d="M21.9872 11.5004C21.7528 6.74199 18.1925 2.85813 13.5823 2.125C13.6991 2.22208 13.8116 2.32848 13.9197 2.44273C14.4561 3.00999 14.9162 3.80399 15.2921 4.74367C16 6.51353 16.4441 8.88797 16.4946 11.5004H21.9872Z" fill="url(#paint_globe)"/>
<path d="M13.1931 3.12984C12.7735 2.68609 12.3699 2.50043 11.9994 2.50043C11.6289 2.50043 11.2254 2.68609 10.8057 3.12984C10.3851 3.57464 9.98322 4.2451 9.63524 5.11506C8.98333 6.74483 8.55491 8.98807 8.50444 11.5004H15.4944C15.4439 8.98807 15.0155 6.74483 14.3636 5.11506C14.0156 4.2451 13.6138 3.57464 13.1931 3.12984Z" fill="url(#paint_globe)"/>
<path d="M14.3636 18.8858C15.0155 17.256 15.4439 15.0128 15.4944 12.5004H8.50444C8.55491 15.0128 8.98333 17.256 9.63524 18.8858C9.98322 19.7558 10.3851 20.4262 10.8057 20.871C11.2254 21.3148 11.6289 21.5004 11.9994 21.5004C12.3699 21.5004 12.7735 21.3148 13.1931 20.871C13.6138 20.4262 14.0156 19.7558 14.3636 18.8858Z" fill="url(#paint_globe)"/>
</g>
<defs>
<linearGradient id="paint_globe" x1="11.9994" y1="2.125" x2="11.9994" y2="21.8759" gradientUnits="userSpaceOnUse">
<stop/>
<stop offset="1" stop-color="#666666"/>
</linearGradient>
</defs>
</svg>
