<svg width="24" height="24" viewBox="0 0 24 24" fill="none" xmlns="http://www.w3.org/2000/svg">
<path fill-rule="evenodd" clip-rule="evenodd" d="M16.0017 13.8998L11.0017 17.7446V19.5382C11.0017 19.9159 11.4044 20.1572 11.7375 19.9791L14.6806 18.4052C15.4939 17.9702 16.0017 17.1229 16.0017 16.2006V13.8998ZM10.0017 17.7054L6.29457 13.9983H4.46177C3.32864 13.9983 2.60467 12.7901 3.13904 11.7909L4.713 8.84775C5.3219 7.70917 6.5082 6.9983 7.79938 6.9983H10.9914C13.6782 4.1181 16.6423 2.31017 20.466 2.03499C21.3207 1.97347 22.0263 2.67924 21.9651 3.53376C21.6907 7.36756 19.8857 10.41 17.0017 13.1031V16.2006C17.0017 17.4918 16.2908 18.6781 15.1522 19.287L12.2091 20.8609C11.2098 21.3953 10.0017 20.6713 10.0017 19.5382V17.7054ZM10.1821 7.9983H7.79938C6.87711 7.9983 6.02975 8.50607 5.59482 9.31934L4.02086 12.2625C3.84274 12.5956 4.08406 12.9983 4.46177 12.9983H6.25847L10.1821 7.9983ZM2 19.4991C2 18.1178 3.12022 16.9983 4.50126 16.9983C5.88183 16.9983 7.00168 18.1175 7.00168 19.4983C7.00168 20.879 5.88239 21.9983 4.50168 21.9983H2.5C2.22386 21.9983 2 21.7744 2 21.4983V19.4991Z" fill="url(#paint_rocket)"/>
<defs>
<linearGradient id="paint_rocket" x1="11.9844" y1="2.03125" x2="11.9844" y2="21.9983" gradientUnits="userSpaceOnUse">
<stop/>
<stop offset="1" stop-color="#666666"/>
</linearGradient>
</defs>
</svg>
