<svg width="24" height="24" viewBox="0 0 24 24" fill="none" xmlns="http://www.w3.org/2000/svg">
<g>
<path d="M16.2404 5.01663L17.0519 3.39346C17.2362 3.02493 17.7621 3.02493 17.9464 3.39346L18.758 5.01663C18.8063 5.11339 18.8848 5.19185 18.9816 5.24023L20.6047 6.05182C20.9733 6.23608 20.9732 6.76198 20.6047 6.94625L18.9816 7.75783C18.8848 7.80621 18.8063 7.88467 18.7579 7.98144L17.9464 9.6046C17.7621 9.97313 17.2362 9.97313 17.0519 9.6046L16.2404 7.98144C16.192 7.88467 16.1135 7.80621 16.0167 7.75783L14.3936 6.94624C14.0251 6.76198 14.0251 6.23608 14.3936 6.05182L16.0167 5.24023C16.1135 5.19185 16.192 5.11339 16.2404 5.01663Z" fill="url(#paint_moon)"/>
<path d="M12.0517 3.59873C12.2712 3.28025 12.2873 2.86375 12.0931 2.52923C11.8989 2.19471 11.5292 2.00218 11.1438 2.03483C6.0214 2.46887 2 6.76274 2 11.9969C2 17.5187 6.47632 21.995 11.9981 21.995C17.2324 21.995 21.5264 17.9735 21.9602 12.8509C21.9929 12.4655 21.8003 12.0958 21.4658 11.9016C21.1313 11.7074 20.7148 11.7236 20.3963 11.9431C19.4302 12.609 18.2602 12.9988 16.9961 12.9988C13.6824 12.9988 10.9961 10.3125 10.9961 6.99879C10.9961 5.73479 11.3858 4.56484 12.0517 3.59873Z" fill="url(#paint_moon)"/>
</g>
<defs>
<linearGradient id="paint_moon" x1="11.9819" y1="2.03125" x2="11.9819" y2="21.995" gradientUnits="userSpaceOnUse">
<stop/>
<stop offset="1" stop-color="#666666"/>
</linearGradient>
</defs>
</svg>
