<svg preserveAspectRatio="none" width="100%" height="100%" overflow="visible" style="display: block;" viewBox="0 0 23.3333 20.5551" fill="none" xmlns="http://www.w3.org/2000/svg">
<g id="Vector">
<path fill-rule="evenodd" clip-rule="evenodd" d="M11.7945 6.21539C14.4596 6.24197 17.2812 7.8118 17.2812 10.978V13.6267C17.2811 13.7223 17.2616 13.817 17.225 13.9053C17.1883 13.9936 17.1348 14.0738 17.0672 14.1413C16.9995 14.2088 16.919 14.2625 16.8306 14.299C16.7423 14.3355 16.6476 14.3541 16.552 14.354H9.01591V15.7931C9.01616 17.097 10.5686 17.8418 11.7945 17.8418C12.6987 17.8417 13.9846 17.3795 14.4884 16.5417C14.5122 16.5027 14.5434 16.5026 14.5724 16.5191C15.4946 17.0367 16.035 17.3321 16.9657 17.8644C17.0192 17.8961 17.0503 17.9698 17.0155 18.026C15.9597 19.7312 13.742 20.5351 11.7945 20.5551C9.07642 20.5286 6.0843 19.0121 6.08411 15.7931V10.978C6.08411 7.8117 9.07567 6.24187 11.7945 6.21539ZM11.7951 9.06251C10.5691 9.06251 9.01656 9.6739 9.01656 10.978V11.9335H14.2873C14.3195 11.9334 14.3505 11.92 14.3733 11.8973C14.3959 11.8747 14.4085 11.844 14.4089 11.812H14.4102V10.978C14.4102 9.67399 12.941 9.06259 11.7951 9.06251Z" fill="var(--fill-0, black)"/>
<path d="M5.57144 0.00138431C5.78192 0.00139421 5.92466 0.206444 5.8559 0.367294C5.78374 0.536104 3.86409 4.46458 4.22288 5.76608C4.58168 7.06824 6.32302 6.81403 6.61099 6.81403C6.7477 6.81416 6.65562 6.92758 6.48557 7.07909C5.53241 7.92841 4.93209 9.1185 4.93207 10.7072V11.8844C4.93205 11.8915 4.93052 11.8986 4.92755 11.9051C4.92456 11.9116 4.92001 11.9173 4.91462 11.9219C4.90919 11.9265 4.90273 11.9303 4.89587 11.9323C4.88902 11.9342 4.88156 11.9347 4.87453 11.9335C2.69924 11.6879 -0.747344 10.3438 0.14421 7.02931C0.496392 5.71988 3.23116 2.68245 5.19002 0.250927C5.21187 0.223785 5.36424 0.00138431 5.57144 0.00138431Z" fill="var(--fill-0, black)"/>
<path d="M17.7619 0C17.9691 3.5237e-05 18.1215 0.222403 18.1433 0.249543C20.1022 2.68172 22.8369 5.71915 23.1891 7.02858C24.0807 10.3431 20.6341 11.6872 18.4588 11.9328C18.4518 11.9339 18.4443 11.9334 18.4375 11.9315C18.4306 11.9296 18.4242 11.9258 18.4187 11.9212C18.4133 11.9165 18.4088 11.9108 18.4058 11.9044C18.4028 11.8979 18.4013 11.8908 18.4013 11.8837V10.7064C18.4012 9.11779 17.8009 7.92832 16.8478 7.079C16.6777 6.92746 16.5849 6.81338 16.7223 6.8133C17.0103 6.8133 18.7517 7.0675 19.1105 5.76535C19.4692 4.46381 17.5496 0.535365 17.4774 0.366557C17.408 0.205039 17.5514 0 17.7619 0Z" fill="var(--fill-0, black)"/>
</g>
</svg>
