<svg preserveAspectRatio="none" width="100%" height="100%" overflow="visible" style="display: block;" viewBox="0 0 33.9889 5.07821" fill="none" xmlns="http://www.w3.org/2000/svg">
<g id="Group 2085662948">
<path id="Vector" d="M14.0471 3.4024C14.0471 3.79694 13.7268 4.11726 13.3323 4.11726H10.8283C10.4338 4.11726 10.1135 3.79694 10.1135 3.4024V0H8.63687V2.74223C8.63687 4.21882 9.71501 5.07821 11.6447 5.07821H12.5119C14.4417 5.07821 15.5198 4.21882 15.5198 2.74223V0H14.0432V3.4024H14.0471ZM1.62503 3.4024V1.61331C1.62503 1.21877 1.94535 0.898453 2.33988 0.898453H6.23448L6.65636 0H3.00786C1.07814 0 0 0.85939 0 2.33598V2.66801C0 4.1446 1.07814 5.00399 3.00786 5.00399H6.78137V4.11726H2.33988C1.94535 4.11726 1.62503 3.79694 1.62503 3.4024ZM31.9263 0H27.27V5.00399H28.7896V3.2188H31.9302C33.2506 3.2188 33.9889 2.69145 33.9889 1.66018V1.55862C33.9889 0.527353 33.2506 0 31.9302 0L31.9263 0ZM32.4654 2.00003C32.4654 2.23832 32.2701 2.43364 32.0318 2.43364H28.7857V0.832045H32.0318C32.274 0.832045 32.4654 1.02736 32.4654 1.26565V2.00003ZM23.0434 2.00785L20.2113 1.89066C19.7074 1.89066 19.5081 1.668 19.5081 1.35159V1.31252C19.5081 1.03517 19.6957 0.835952 20.016 0.835952H24.1723L24.559 0H19.9339C18.68 0.00781263 17.8597 0.609385 17.8597 1.50784V1.57815C17.8597 2.4766 18.6097 2.98443 19.6839 2.99614L22.4965 3.10162C23.0004 3.10162 23.1996 3.32818 23.1996 3.6485V3.68756C23.1996 3.96882 23.0121 4.17195 22.6918 4.17195H17.9183V5.0079H22.7699C24.016 5.0079 24.8598 4.39851 24.8598 3.50006V3.44928C24.8598 2.55082 24.1489 2.05472 23.0356 2.01175L23.0434 2.00785Z" fill="var(--fill-0, #D2AD8D)"/>
</g>
</svg>
