<svg preserveAspectRatio="none" width="100%" height="100%" overflow="visible" style="display: block;" viewBox="0 0 30 20.9045" fill="none" xmlns="http://www.w3.org/2000/svg">
<path id="Vector" d="M28.0983 3.54906L30 3.54667V0H28.0983C25.7779 0 23.8012 1.76193 23.4337 4.15825L21.5328 16.5357C21.4593 17.0076 21.0707 17.3546 20.6126 17.3546C20.1546 17.3546 19.7635 17.0061 19.6925 16.5333L17.971 5.20359C17.6362 3.00972 15.828 1.39309 13.7027 1.39299C11.5765 1.39299 9.76674 3.00966 9.43361 5.20359L7.71369 16.5357C7.64267 17.0076 7.2539 17.3545 6.79593 17.3546C6.34032 17.3546 5.9492 17.0077 5.87816 16.5357L3.43504 0.379545H0L2.53083 17.0915C2.86315 19.2854 4.67457 20.9021 6.79992 20.9021C8.92522 20.902 10.7351 19.2878 11.0666 17.0931L12.7865 5.76095C12.8577 5.28916 13.2463 4.94206 13.7043 4.94206C14.1606 4.94213 14.5509 5.28919 14.6228 5.76095L16.3428 17.0915C16.6767 19.2879 18.4881 20.9045 20.6134 20.9045C22.7378 20.9044 24.546 19.2924 24.8817 17.1003L26.7834 4.72199C26.8863 4.04592 27.4451 3.54906 28.0983 3.54906Z" fill="url(#paint0_linear_0_77)"/>
<defs>
<linearGradient id="paint0_linear_0_77" x1="15" y1="0" x2="15" y2="20.9045" gradientUnits="userSpaceOnUse">
<stop stop-color="#F7D8D6"/>
<stop offset="1" stop-color="#F3CDFB"/>
</linearGradient>
</defs>
</svg>
