<svg preserveAspectRatio="none" width="100%" height="100%" overflow="visible" style="display: block;" viewBox="0 0 33.9961 5.77943" fill="none" xmlns="http://www.w3.org/2000/svg">
<g id="g12">
<g id="path14">
<path d="M23.1502 3.49245L19.9289 3.62667C19.3538 3.62667 19.1291 3.88123 19.1291 4.24152V4.28439C19.1291 4.60035 19.3428 4.82809 19.7079 4.82809H24.4401L24.8822 5.77943H19.6205H19.6204C18.193 5.76865 17.2614 5.08724 17.2614 4.06369V4.04723V3.9853C17.2614 2.96177 18.1163 2.38364 19.3361 2.37285L22.5367 2.25106C23.1118 2.25106 23.3366 1.99334 23.3366 1.62859V1.58545C23.3366 1.26553 23.1227 1.03499 22.7577 1.03499L17.3238 1.03483V0.083485H22.8451C24.2638 0.083485 25.2248 0.775677 25.2248 1.79919V1.85695C25.2248 2.88047 24.4167 3.44196 23.1502 3.49245ZM32.2679 3.50425C32.2679 3.23084 32.0462 3.00921 31.7728 3.00921H28.08V4.83403H31.7728C32.0462 4.83403 32.2679 4.61239 32.2679 4.33894V3.50425ZM31.6532 5.77943H26.3522V0.083882H28.08V2.11621H31.6532C33.1557 2.11621 33.9961 2.7173 33.9961 3.88939V4.00624C33.9961 5.17837 33.1557 5.77943 31.6532 5.77943ZM14.4541 1.90835C14.4541 1.45928 14.0901 1.09525 13.641 1.09525H10.7931C10.344 1.09525 9.98 1.45928 9.98 1.90835V5.77943H8.30009V2.65964C8.30009 0.979029 9.52836 9.7636e-05 11.7245 9.7636e-05H12.7096C14.9058 9.7636e-05 16.134 0.979029 16.134 2.65964V5.77943H14.4541C14.4541 5.77943 14.4541 2.87612 14.4541 1.90835ZM1.84965 1.90835V3.94493C1.84965 4.39396 2.21369 4.75799 2.66275 4.75799H7.09631L7.5764 5.77943H3.42438C1.22833 5.77943 0 4.8005 0 3.11989V2.74345C0 1.06281 1.22833 0.083882 3.42438 0.083882H7.72044V1.09525H2.66275C2.21369 1.09525 1.84965 1.45928 1.84965 1.90835Z" fill="var(--fill-0, #D2AD8D)"/>
<path d="M3.4248 0.202246H7.60254V0.977637H2.66309C2.14885 0.977637 1.73147 1.39408 1.73145 1.9083V3.94541C1.7317 4.4594 2.149 4.87607 2.66309 4.87607H7.02148L7.39062 5.66123H3.4248C2.34222 5.66123 1.51456 5.42034 0.960938 4.9874C0.411552 4.55776 0.118243 3.92873 0.118164 3.12021V2.74326C0.118209 1.93471 0.41157 1.30574 0.960938 0.876074C1.51456 0.443134 2.34222 0.202246 3.4248 0.202246ZM27.9619 0.202246V2.23447H31.6533C32.3916 2.23449 32.948 2.38282 33.3174 2.6583C33.681 2.92956 33.8779 3.33523 33.8779 3.88975V4.00596C33.8779 4.5605 33.681 4.96614 33.3174 5.2374C32.948 5.51289 32.3916 5.66122 31.6533 5.66123H26.4707V0.202246H27.9619ZM22.8447 0.20127C23.5363 0.20127 24.1056 0.370533 24.498 0.653418C24.8877 0.934287 25.1064 1.32875 25.1064 1.79893V1.85654C25.1064 2.33301 24.9206 2.69405 24.5908 2.94541C24.2983 3.16835 23.8853 3.31085 23.3721 3.35947L23.1455 3.37412L19.9238 3.50889C19.6238 3.50963 19.3939 3.57627 19.2373 3.70908C19.0766 3.84546 19.0108 4.03577 19.0107 4.24131V4.28428C19.0107 4.46935 19.0743 4.63721 19.1992 4.75889C19.3242 4.88052 19.5006 4.94639 19.708 4.94639H24.3652L24.6973 5.66123H19.6211C18.9248 5.65593 18.3615 5.48715 17.9756 5.20615C17.5927 4.92719 17.3799 4.5351 17.3799 4.06357V3.98545C17.3799 3.5108 17.5758 3.14514 17.9121 2.89365C18.2523 2.63937 18.7438 2.49659 19.3369 2.49131L19.3408 2.49033L22.541 2.36924L22.54 2.36826C22.8413 2.36776 23.0725 2.30094 23.2295 2.16611C23.3898 2.0283 23.454 1.83615 23.4541 1.629V1.58506C23.454 1.39852 23.3913 1.22944 23.2666 1.10654C23.1417 0.983502 22.9656 0.917116 22.7578 0.91709H17.4414V0.20127H22.8447ZM11.7246 0.118262H12.71C13.7924 0.118313 14.6193 0.360175 15.1729 0.793066C15.722 1.2227 16.0155 1.85092 16.0156 2.65928V5.66123H14.5723V1.9083C14.5722 1.39408 14.1548 0.977637 13.6406 0.977637H10.793C10.2788 0.977706 9.86233 1.39412 9.8623 1.9083V5.66123H8.41797V2.65928C8.41806 1.85079 8.71236 1.2227 9.26172 0.793066C9.81533 0.360129 10.642 0.118262 11.7246 0.118262ZM27.9619 4.95225H31.7725C32.111 4.95225 32.3857 4.67759 32.3857 4.33896V3.504C32.3856 3.16552 32.1109 2.89072 31.7725 2.89072H27.9619V4.95225Z" stroke="url(#paint0_linear_0_67)" stroke-opacity="0.5" stroke-width="0.236033"/>
</g>
</g>
<defs>
<linearGradient id="paint0_linear_0_67" x1="16.998" y1="9.7636e-05" x2="16.998" y2="5.77943" gradientUnits="userSpaceOnUse">
<stop stop-color="white"/>
<stop offset="1" stop-color="white" stop-opacity="0.1"/>
</linearGradient>
</defs>
</svg>
