<svg preserveAspectRatio="none" width="100%" height="100%" overflow="visible" style="display: block;" viewBox="0 0 112 32" fill="none" xmlns="http://www.w3.org/2000/svg">
<g id="Frame 2136137435">
<path id="Vector" d="M29.0188 10H40.4069V12.1388H35.9229V24.1956H33.4652V12.1388H29L29.0188 10ZM39.9191 13.918H42.0203V15.9054H42.0579C42.1329 15.6214 42.2642 15.3565 42.4519 15.0915C42.6395 14.8265 42.8646 14.5804 43.146 14.3722C43.4087 14.1451 43.7089 13.9748 44.0466 13.8423C44.3655 13.7098 44.7032 13.6341 45.0409 13.6341C45.3036 13.6341 45.4912 13.653 45.585 13.653C45.6788 13.6719 45.7914 13.6909 45.8852 13.6909V15.8675C45.7351 15.8297 45.5662 15.8107 45.3974 15.7918C45.2285 15.7729 45.0784 15.7539 44.9096 15.7539C44.5344 15.7539 44.1779 15.8296 43.8402 15.9811C43.5025 16.1325 43.2211 16.3596 42.9584 16.6435C42.7145 16.9464 42.5081 17.306 42.358 17.7413C42.208 18.1767 42.1329 18.6877 42.1329 19.2555V24.1388H39.8816L39.9191 13.918ZM56.2039 24.1956H53.9901V22.7571H53.9525C53.6711 23.2871 53.2584 23.6845 52.7143 24.0063C52.1702 24.3281 51.6074 24.4795 51.0445 24.4795C49.7125 24.4795 48.7369 24.1577 48.1365 23.4763C47.5362 22.8139 47.236 21.7918 47.236 20.4479V13.918H49.4873V20.2208C49.4873 21.1293 49.6562 21.7729 50.0127 22.1325C50.3504 22.511 50.8382 22.7003 51.4573 22.7003C51.9263 22.7003 52.3203 22.6246 52.6392 22.4732C52.9582 22.3218 53.2208 22.1325 53.4085 21.8864C53.6148 21.6404 53.7462 21.3375 53.84 20.9968C53.9338 20.6561 53.9713 20.2776 53.9713 19.8801V13.918H56.2227V24.1956H56.2039ZM60.0312 20.9022C60.1062 21.5647 60.3501 22.0189 60.7816 22.3028C61.2132 22.5678 61.7385 22.7003 62.3388 22.7003C62.5452 22.7003 62.7891 22.6814 63.0518 22.6435C63.3144 22.6057 63.5771 22.5489 63.8022 22.4543C64.0461 22.3596 64.2337 22.2271 64.3838 22.0379C64.5339 21.8486 64.6089 21.6215 64.5902 21.3375C64.5714 21.0536 64.4776 20.8076 64.2712 20.6183C64.0649 20.429 63.821 20.2965 63.5208 20.164C63.2206 20.0505 62.8641 19.9558 62.4702 19.8801C62.0762 19.8044 61.6822 19.7098 61.2694 19.6151C60.8567 19.5205 60.4439 19.4069 60.05 19.2745C59.656 19.142 59.3183 18.9716 58.9993 18.7255C58.6991 18.4984 58.4365 18.2145 58.2676 17.8549C58.08 17.4953 57.9862 17.0789 57.9862 16.5489C57.9862 15.9811 58.1175 15.5268 58.399 15.1483C58.6616 14.7697 59.0181 14.4669 59.4308 14.2397C59.8436 14.0126 60.3126 13.8423 60.8192 13.7476C61.3257 13.653 61.8135 13.6151 62.2638 13.6151C62.7891 13.6151 63.2957 13.6719 63.7647 13.7855C64.2337 13.8991 64.684 14.0694 65.0592 14.3344C65.4532 14.5804 65.7722 14.9211 66.016 15.3186C66.2787 15.7161 66.4288 16.2082 66.5038 16.776H64.1587C64.0461 16.2271 63.8022 15.8675 63.427 15.6782C63.033 15.489 62.6015 15.3943 62.0949 15.3943C61.9448 15.3943 61.7385 15.4132 61.5321 15.4322C61.307 15.47 61.1194 15.5079 60.913 15.5836C60.7254 15.6593 60.5565 15.7729 60.4252 15.9054C60.2939 16.0379 60.2188 16.2271 60.2188 16.4543C60.2188 16.7382 60.3126 16.9464 60.5002 17.1167C60.6878 17.2871 60.9317 17.4196 61.2507 17.5521C61.5509 17.6656 61.9073 17.7603 62.3013 17.836C62.6953 17.9117 63.108 18.0063 63.5208 18.1009C63.9335 18.1956 64.3275 18.3091 64.7215 18.4416C65.1155 18.5741 65.472 18.7445 65.7722 18.9905C66.0723 19.2177 66.335 19.5016 66.5226 19.8423C66.7102 20.183 66.804 20.6183 66.804 21.1104C66.804 21.7161 66.6727 22.2271 66.3913 22.6625C66.1099 23.0789 65.7534 23.4385 65.3219 23.7035C64.8904 23.9685 64.3838 24.1577 63.8585 24.2902C63.3144 24.4038 62.7891 24.4795 62.2638 24.4795C61.6259 24.4795 61.0255 24.4038 60.4815 24.2524C59.9374 24.1009 59.4496 23.8738 59.0556 23.5899C58.6616 23.2871 58.3427 22.9274 58.1175 22.4732C57.8924 22.0379 57.7611 21.5079 57.7423 20.8833H60.0124V20.9022H60.0312ZM67.4419 13.918H69.1492V10.8139H71.4005V13.899H73.4268V15.5836H71.4005V21.0726C71.4005 21.3186 71.4193 21.5079 71.4381 21.6972C71.4568 21.8675 71.5131 22.0189 71.5694 22.1325C71.6444 22.2461 71.757 22.3407 71.8883 22.3975C72.0384 22.4543 72.226 22.4921 72.4887 22.4921C72.6388 22.4921 72.8076 22.4921 72.9577 22.4732C73.1078 22.4543 73.2767 22.4353 73.4268 22.3975V24.1577C73.1829 24.1956 72.939 24.2145 72.6951 24.2334C72.4512 24.2713 72.226 24.2713 71.9634 24.2713C71.363 24.2713 70.894 24.2145 70.5375 24.1009C70.1811 23.9874 69.8996 23.817 69.6933 23.6088C69.4869 23.3817 69.3556 23.1167 69.2805 22.795C69.2055 22.4732 69.1679 22.0757 69.1492 21.6593V15.6025H67.4419V13.8801V13.918ZM75.0027 13.918H77.1227V15.3186H77.1603C77.4792 14.7129 77.9107 14.2965 78.4736 14.0315C79.0364 13.7666 79.6368 13.6341 80.3122 13.6341C81.1189 13.6341 81.8131 13.7666 82.4134 14.0694C83.0138 14.3533 83.5016 14.7319 83.8956 15.2429C84.2896 15.735 84.5897 16.3218 84.7774 16.9842C84.965 17.6467 85.0775 18.3659 85.0775 19.1041C85.0775 19.8044 84.9837 20.4669 84.8149 21.1104C84.6273 21.7539 84.3646 22.3407 84.0081 22.8328C83.6517 23.3249 83.2014 23.7224 82.6386 24.0252C82.0757 24.3281 81.4378 24.4795 80.6874 24.4795C80.3684 24.4795 80.0307 24.4416 79.7118 24.3849C79.3929 24.3281 79.0739 24.2334 78.7737 24.1009C78.4736 23.9685 78.1921 23.7981 77.9482 23.5899C77.6856 23.3817 77.4792 23.1356 77.3104 22.8707H77.2728V28H75.0215V13.918H75.0027ZM82.8637 19.0662C82.8637 18.612 82.8074 18.1577 82.6761 17.7224C82.5635 17.2871 82.3759 16.9085 82.132 16.5678C81.8881 16.2271 81.5879 15.9621 81.2502 15.7539C80.8938 15.5457 80.481 15.4511 80.0307 15.4511C79.0927 15.4511 78.3797 15.7729 77.892 16.4353C77.4229 17.0978 77.179 17.9874 77.179 19.0852C77.179 19.6151 77.2353 20.0883 77.3666 20.5237C77.498 20.959 77.6668 21.3375 77.9295 21.6593C78.1734 21.9811 78.4736 22.2271 78.83 22.4164C79.1865 22.6057 79.5805 22.7003 80.0495 22.7003C80.5748 22.7003 80.9876 22.5868 81.344 22.3786C81.7005 22.1703 81.9819 21.8864 82.2258 21.5647C82.4509 21.224 82.6198 20.8454 82.7136 20.4101C82.8074 19.9558 82.8637 19.5205 82.8637 19.0662ZM86.8223 10H89.0737V12.1388H86.8223V10ZM86.8223 13.918H89.0737V24.1956H86.8223V13.918ZM91.0811 10H93.3325V24.1956H91.0811V10ZM100.199 24.4795C99.3924 24.4795 98.6607 24.347 98.0228 24.0631C97.3849 23.7792 96.8596 23.4196 96.4094 22.9464C95.9779 22.4732 95.6401 21.8864 95.415 21.224C95.1899 20.5615 95.0585 19.8233 95.0585 19.0473C95.0585 18.2713 95.1711 17.5521 95.415 16.8896C95.6401 16.2271 95.9779 15.6593 96.4094 15.1672C96.8409 14.694 97.3849 14.3155 98.0228 14.0505C98.6607 13.7855 99.3924 13.6341 100.199 13.6341C101.006 13.6341 101.738 13.7666 102.375 14.0505C103.013 14.3155 103.539 14.694 103.989 15.1672C104.42 15.6404 104.758 16.2271 104.983 16.8896C105.208 17.5521 105.34 18.2713 105.34 19.0473C105.34 19.8423 105.227 20.5615 104.983 21.224C104.739 21.8864 104.42 22.4543 103.989 22.9464C103.557 23.4196 103.013 23.7981 102.375 24.0631C101.738 24.3281 101.025 24.4795 100.199 24.4795ZM100.199 22.6814C100.687 22.6814 101.137 22.5678 101.494 22.3596C101.869 22.1514 102.15 21.8675 102.394 21.5268C102.638 21.1861 102.807 20.7886 102.92 20.3722C103.032 19.9369 103.088 19.5016 103.088 19.0473C103.088 18.612 103.032 18.1767 102.92 17.7413C102.807 17.306 102.638 16.9274 102.394 16.5867C102.15 16.2461 101.85 15.9811 101.494 15.7729C101.118 15.5647 100.687 15.4511 100.199 15.4511C99.7113 15.4511 99.2611 15.5647 98.9046 15.7729C98.5294 15.9811 98.248 16.265 98.0041 16.5867C97.7602 16.9274 97.5913 17.306 97.4787 17.7413C97.3662 18.1767 97.3099 18.612 97.3099 19.0473C97.3099 19.5016 97.3662 19.9369 97.4787 20.3722C97.5913 20.8076 97.7602 21.1861 98.0041 21.5268C98.248 21.8675 98.5481 22.1514 98.9046 22.3596C99.2798 22.5868 99.7113 22.6814 100.199 22.6814ZM106.015 13.918H107.722V10.8139H109.974V13.899H112V15.5836H109.974V21.0726C109.974 21.3186 109.993 21.5079 110.011 21.6972C110.03 21.8675 110.086 22.0189 110.143 22.1325C110.218 22.2461 110.33 22.3407 110.462 22.3975C110.612 22.4543 110.799 22.4921 111.062 22.4921C111.212 22.4921 111.381 22.4921 111.531 22.4732C111.681 22.4543 111.85 22.4353 112 22.3975V24.1577C111.756 24.1956 111.512 24.2145 111.268 24.2334C111.024 24.2713 110.799 24.2713 110.537 24.2713C109.936 24.2713 109.467 24.2145 109.111 24.1009C108.754 23.9874 108.473 23.817 108.266 23.6088C108.06 23.3817 107.929 23.1167 107.854 22.795C107.779 22.4732 107.741 22.0757 107.722 21.6593V15.6025H106.015V13.8801V13.918Z" fill="var(--fill-0, black)"/>
<path id="Vector_2" d="M27 9.93558H16.6848L13.5094 0L10.3152 9.93558L0 9.91655L8.34238 16.0644L5.14823 26L13.4906 19.8521L21.833 26L18.6576 16.0644L27 9.93558Z" fill="var(--fill-0, #00B67A)"/>
<path id="Vector_3" d="M19 18.3719L18.2692 16L13 20L19 18.3719Z" fill="var(--fill-0, #005128)"/>
</g>
</svg>
