<svg preserveAspectRatio="none" width="100%" height="100%" overflow="visible" style="display: block;" viewBox="0 0 24 24" fill="none" xmlns="http://www.w3.org/2000/svg">
<g id="appstore">
<path id="Vector" fill-rule="evenodd" clip-rule="evenodd" d="M6.838 3H18.162C20.2829 3 22 4.71713 22.0024 6.838V18.162C22.0024 20.2829 20.2829 22 18.1644 22H6.838C4.71713 22 3 20.2829 3 18.1644V6.838C3 4.71713 4.71713 3 6.838 3ZM12.804 6.70024L12.4192 7.36524L12.0416 6.69787C11.7994 6.28224 11.2745 6.14212 10.8589 6.37962C10.4432 6.62187 10.3031 7.14674 10.5406 7.56237L11.4217 9.09187L8.60024 13.982H6.39624C5.91649 13.982 5.53174 14.3667 5.53174 14.8465C5.53174 15.3262 5.91649 15.711 6.39624 15.711H14.2575C14.6351 15.0032 14.1482 13.982 13.279 13.982H10.5976L14.305 7.56474C14.5425 7.14912 14.4024 6.61949 13.9867 6.38199C13.5711 6.14449 13.0415 6.28462 12.804 6.70024ZM8.25349 18.0432L9.08474 16.6016C8.63586 16.0601 8.06824 15.8939 7.36999 16.11L6.75249 17.1787C6.51499 17.5944 6.65511 18.124 7.07074 18.3615C7.48636 18.599 8.01599 18.4589 8.25349 18.0432ZM18.4921 13.9867H16.243C16.0707 13.6885 15.9051 13.4015 15.746 13.126C14.8588 11.5894 14.1759 10.4068 13.6946 9.58112C13.184 10.0062 12.6662 11.2602 13.3906 12.5095C13.7047 13.0545 14.0895 13.7206 14.5445 14.5083C15.1146 15.4954 15.7951 16.6734 16.585 18.0432C16.8272 18.4589 17.3521 18.599 17.7677 18.3615C18.1834 18.1192 18.3235 17.5944 18.086 17.1787L17.2429 15.7157H18.4921C18.9719 15.7157 19.3566 15.331 19.3566 14.8512C19.3566 14.3715 18.9719 13.9867 18.4921 13.9867Z" fill="var(--fill-0, black)"/>
</g>
</svg>
