<svg preserveAspectRatio="none" width="100%" height="100%" overflow="visible" style="display: block;" viewBox="0 0 677 276" fill="none" xmlns="http://www.w3.org/2000/svg">
<path id="Area" d="M677 0C673.839 2.65792 670.353 2.7112 667.192 4.27907C664.031 5.84694 660.869 8.44515 657.708 9.69945C654.547 10.9537 651.386 11.8049 648.224 11.8049C645.063 11.8049 641.902 11.3121 638.741 11.3121C635.579 11.3121 632.418 18.7931 629.257 18.7931C626.095 18.7931 622.934 17.3148 619.773 17.3148C616.612 17.3148 613.45 19.4949 610.289 22.0632C607.128 24.6316 603.967 32.2469 600.805 32.7248C597.644 33.2026 594.483 33.1578 591.321 33.4415C588.16 33.7252 584.999 33.77 581.837 34.427C578.676 35.0841 575.515 40.3252 572.354 41.1017C569.192 41.8782 566.031 42.2664 562.87 42.2664C559.709 42.2664 556.547 39.6234 553.386 39.6234C550.225 39.6234 547.064 45.1782 543.902 46.0741C540.741 46.97 537.58 47.418 534.418 47.418C531.257 47.418 528.096 41.8632 524.935 41.8632C521.773 41.8632 518.612 45.1259 515.451 48.5827C512.289 52.0394 509.128 57.9003 505.967 62.6039C502.806 67.3076 499.644 76.8044 496.483 76.8044C493.322 76.8044 490.16 71.832 486.999 71.832C483.838 71.832 480.677 80.2537 477.515 80.2537C474.354 80.2537 471.193 78.1931 468.031 78.1931C464.87 78.1931 461.709 88.989 458.548 89.3474C455.386 89.7057 452.225 89.8849 449.064 89.8849C445.903 89.8849 442.741 89.3474 439.58 89.3474C436.419 89.3474 433.257 97.2763 430.096 97.2763C426.935 97.2763 423.774 91.8709 420.612 91.7216C417.451 91.5722 414.29 91.6469 411.128 91.4976C407.967 91.3483 404.806 81.1795 401.645 77.3419C398.483 73.5044 395.322 68.4723 392.161 68.4723C389 68.4723 385.838 117.226 382.677 118.062C379.516 118.898 376.354 118.905 373.193 119.316C370.032 119.727 366.871 120.526 363.709 120.526C360.548 120.526 357.387 119.846 354.225 118.779C351.064 117.711 347.903 114.12 344.742 114.12C341.58 114.12 338.419 117.166 335.258 120.615C332.097 124.065 328.935 130.239 325.774 134.816C322.613 139.392 319.451 145.925 316.29 148.075C313.129 150.226 309.968 149.15 306.806 151.301C303.645 153.451 300.484 158.565 297.322 163.575C294.161 168.585 291 181.359 287.839 181.359C284.677 181.359 281.516 163.485 278.355 158.334C275.194 153.182 272.032 150.45 268.871 150.45C265.71 150.45 262.548 177.955 259.387 177.955C256.226 177.955 253.065 176.349 249.903 173.385C246.742 170.421 243.581 160.469 240.419 160.17C237.258 159.872 234.097 159.722 230.936 159.722C227.774 159.722 224.613 161.335 221.452 162.5C218.291 163.665 215.129 165.285 211.968 166.711C208.807 168.137 205.645 169.533 202.484 171.056C199.323 172.579 196.162 172.922 193 175.849C189.839 178.776 186.678 186.496 183.516 188.616C180.355 190.736 177.194 191.797 174.033 191.797C170.871 191.797 167.71 184.413 164.549 180.866C161.387 177.32 158.226 170.518 155.065 170.518C151.904 170.518 148.742 171.011 145.581 171.011H136.097C132.936 171.011 129.775 167.98 126.613 166.935C123.452 165.889 120.291 166.203 117.13 164.74C113.968 163.276 110.807 151.077 107.646 151.077C104.484 151.077 101.323 160.484 98.1619 160.484C95.0006 160.484 91.8394 158.528 88.6781 156.542C85.5168 154.556 82.3555 148.568 79.1942 148.568C76.033 148.568 72.8717 152.204 69.7104 156.139C66.5491 160.073 63.3879 172.176 60.2266 172.176C57.0653 172.176 53.9041 164.74 50.7428 161.29C47.5815 157.841 44.4202 151.48 41.2589 151.48C38.0976 151.48 34.9363 157.841 31.7751 157.841C28.6138 157.841 25.4525 142.7 22.2913 142.7C19.13 142.7 15.9687 145.522 12.8074 145.522C9.6461 145.522 3.16128 107.792 0 107.792V276H677V0Z" fill="url(#paint0_linear_0_56)"/>
<defs>
<linearGradient id="paint0_linear_0_56" x1="1191.02" y1="207" x2="-111.346" y2="-35.2712" gradientUnits="userSpaceOnUse">
<stop stop-color="#FDF5F2"/>
<stop offset="0.269231" stop-color="#FEE3C6"/>
<stop offset="0.605769" stop-color="#945F3B"/>
<stop offset="1"/>
</linearGradient>
</defs>
</svg>
