<svg preserveAspectRatio="none" width="100%" height="100%" overflow="visible" style="display: block;" viewBox="0 0 678.903 193.903" fill="none" xmlns="http://www.w3.org/2000/svg">
<path id="Line" d="M677.951 0.951298C674.79 3.61203 671.305 3.66537 668.143 5.23491C664.982 6.80444 661.821 9.40541 658.66 10.661C655.498 11.9167 652.337 12.7687 649.176 12.7687C646.014 12.7687 642.853 12.2754 639.692 12.2754C636.531 12.2754 633.369 19.7643 630.208 19.7643C627.047 19.7643 623.885 18.2845 620.724 18.2845C617.563 18.2845 614.402 20.4669 611.24 23.0379C608.079 25.609 604.918 33.2324 601.757 33.7108C598.595 34.1891 595.434 34.1443 592.273 34.4283C589.111 34.7123 585.95 34.7571 582.789 35.4149C579.627 36.0726 576.466 41.3193 573.305 42.0966C570.144 42.8739 566.982 43.2625 563.821 43.2625C560.66 43.2625 557.499 40.6167 554.337 40.6167C551.176 40.6167 548.015 46.1774 544.854 47.0742C541.692 47.9711 538.531 48.4196 535.37 48.4196C532.208 48.4196 529.047 42.8589 525.886 42.8589C522.725 42.8589 519.563 46.125 516.402 49.5855C513.241 53.0459 510.079 58.913 506.918 63.6216C503.757 68.3302 500.596 77.8371 497.434 77.8371C494.273 77.8371 491.112 72.8595 487.95 72.8595C484.789 72.8595 481.628 81.2901 478.467 81.2901C475.305 81.2901 472.144 79.2273 468.983 79.2273C465.822 79.2273 462.66 90.0347 459.499 90.3934C456.338 90.7522 453.176 90.9315 450.015 90.9315C446.854 90.9315 443.693 90.3934 440.531 90.3934C437.37 90.3934 434.209 98.3308 431.047 98.3308C427.886 98.3308 424.725 92.9196 421.564 92.7701C418.402 92.6206 415.241 92.6954 412.08 92.5459C408.919 92.3964 405.757 82.2169 402.596 78.3752C399.435 74.5336 396.273 69.4962 393.112 69.4962C389.951 69.4962 386.79 118.301 383.628 119.138C380.467 119.975 377.306 119.983 374.144 120.394C370.983 120.805 367.822 121.605 364.661 121.605C361.499 121.605 358.338 120.925 355.177 119.856C352.015 118.787 348.854 115.192 345.693 115.192C342.532 115.192 339.37 118.241 336.209 121.694C333.048 125.147 329.887 131.328 326.725 135.91C323.564 140.491 320.403 147.031 317.241 149.184C314.08 151.336 310.919 150.26 307.758 152.412C304.596 154.565 301.435 159.685 298.274 164.7C295.112 169.715 291.951 182.503 288.79 182.503C285.629 182.503 282.467 164.61 279.306 159.453C276.145 154.296 272.984 151.56 269.822 151.56C266.661 151.56 263.5 179.095 260.338 179.095C257.177 179.095 254.016 177.488 250.855 174.521C247.693 171.553 244.532 161.591 241.371 161.292C238.209 160.993 235.048 160.843 231.887 160.843C228.726 160.843 225.564 162.457 222.403 163.623C219.242 164.789 216.08 166.411 212.919 167.839C209.758 169.266 206.597 170.664 203.435 172.189C200.274 173.713 197.113 174.057 193.952 176.987C190.79 179.917 187.629 187.645 184.468 189.767C181.306 191.89 178.145 192.951 174.984 192.951C171.823 192.951 168.661 185.56 165.5 182.009C162.339 178.459 159.178 171.65 156.016 171.65C152.855 171.65 149.694 172.144 146.532 172.144H137.049C133.887 172.144 130.726 169.109 127.565 168.063C124.403 167.017 121.242 167.331 118.081 165.866C114.92 164.401 111.758 152.188 108.597 152.188C105.436 152.188 102.274 161.605 99.1132 161.605C95.9519 161.605 92.7906 159.647 89.6294 157.659C86.4681 155.671 83.3068 149.677 80.1455 149.677C76.9842 149.677 73.823 153.317 70.6617 157.256C67.5004 161.194 64.3391 173.31 61.1779 173.31C58.0166 173.31 54.8553 165.866 51.6941 162.413C48.5328 158.96 45.3715 152.592 42.2102 152.592C39.0489 152.592 35.8876 158.96 32.7263 158.96C29.5651 158.96 26.4038 143.802 23.2425 143.802C20.0813 143.802 16.9199 146.628 13.7587 146.628C10.5974 146.628 4.11255 108.858 0.951276 108.858" stroke="url(#paint0_linear_0_55)" stroke-width="1.90255" stroke-linecap="round" stroke-linejoin="round"/>
<defs>
<linearGradient id="paint0_linear_0_55" x1="1191.97" y1="144.951" x2="-119.116" y2="-468.109" gradientUnits="userSpaceOnUse">
<stop stop-color="#FDF5F2"/>
<stop offset="0.269231" stop-color="#FEE3C6"/>
<stop offset="1" stop-color="#945F3B"/>
</linearGradient>
</defs>
</svg>
