<svg preserveAspectRatio="none" width="100%" height="100%" overflow="visible" style="display: block;" viewBox="0 0 1465.78 1060.35" fill="none" xmlns="http://www.w3.org/2000/svg">
<g id="Group 2085663160">
<path id="Ellipse 5" d="M381.712 480.848C415.706 480.848 449.367 487.544 480.773 500.552C512.179 513.561 540.716 532.629 564.753 556.666C588.79 580.703 607.858 609.24 620.867 640.646C633.876 672.052 640.571 705.713 640.571 739.707" stroke="var(--stroke-0, #D2AD8D)" stroke-width="1.41077"/>
<path id="Ellipse 15" d="M381.712 511.387C411.696 511.387 441.386 517.293 469.087 528.767C496.789 540.241 521.959 557.059 543.16 578.261C564.362 599.463 581.18 624.633 592.654 652.334C604.129 680.035 610.034 709.726 610.034 739.709" stroke="var(--stroke-0, #D2AD8D)" stroke-width="1.41077"/>
<path id="Ellipse 17" d="M381.713 541.928C407.687 541.928 433.406 547.044 457.402 556.984C481.399 566.923 503.202 581.492 521.568 599.858C539.934 618.224 554.503 640.028 564.443 664.024C574.382 688.02 579.498 713.74 579.498 739.713" stroke="var(--stroke-0, #D2AD8D)" stroke-width="1.41077"/>
<path id="Ellipse 19" d="M381.713 403.457C403.677 403.457 425.425 407.783 445.716 416.188C466.008 424.593 484.445 436.913 499.976 452.443C515.506 467.974 527.825 486.411 536.23 506.702C544.635 526.994 548.961 548.742 548.961 570.705" stroke="var(--stroke-0, #D2AD8D)" stroke-width="1.41077"/>
<path id="Ellipse 21" d="M381.713 433.998C399.667 433.998 417.444 437.534 434.03 444.405C450.617 451.275 465.688 461.345 478.383 474.04C491.078 486.735 501.148 501.806 508.018 518.392C514.888 534.979 518.424 552.756 518.424 570.709" stroke="var(--stroke-0, #D2AD8D)" stroke-width="1.41077"/>
<path id="Ellipse 23" d="M381.715 464.534C395.658 464.534 409.465 467.28 422.347 472.616C435.228 477.951 446.933 485.772 456.792 495.631C466.651 505.49 474.472 517.195 479.808 530.077C485.143 542.958 487.89 556.765 487.89 570.708" stroke="var(--stroke-0, #D2AD8D)" stroke-width="1.41077"/>
<path id="Ellipse 7" d="M381.714 450.313C419.718 450.313 457.35 457.798 492.461 472.342C527.572 486.885 559.475 508.202 586.348 535.075C613.221 561.948 634.537 593.851 649.081 628.962C663.624 664.073 671.11 701.705 671.11 739.709" stroke="var(--stroke-0, #D2AD8D)" stroke-width="1.41077"/>
<path id="Ellipse 9" d="M381.714 419.778C423.728 419.778 465.331 428.053 504.147 444.131C542.963 460.209 578.232 483.775 607.94 513.484C637.649 543.192 661.215 578.462 677.293 617.278C693.371 656.094 701.647 697.696 701.647 739.711" stroke="var(--stroke-0, #D2AD8D)" stroke-width="1.41077"/>
<path id="Ellipse 11" d="M381.714 31.2405C427.738 31.2405 473.312 40.3057 515.833 57.9185C558.354 75.5313 596.989 101.347 629.533 133.891C662.078 166.435 687.893 205.071 705.506 247.592C723.119 290.113 732.184 335.686 732.184 381.711" stroke="var(--stroke-0, #D2AD8D)" stroke-width="1.41077"/>
<path id="Ellipse 13" d="M381.712 0.705385C431.747 0.705383 481.292 10.5604 527.518 29.7078C573.744 48.8552 615.745 76.92 651.125 112.3C686.505 147.68 714.57 189.681 733.717 235.907C752.865 282.133 762.72 331.678 762.72 381.712" stroke="var(--stroke-0, #D2AD8D)" stroke-width="1.41077"/>
<path id="Ellipse 43" d="M1145.14 480.848C1111.14 480.848 1077.48 487.544 1046.08 500.552C1014.67 513.561 986.134 532.629 962.097 556.666C938.06 580.703 918.992 609.24 905.983 640.646C892.975 672.052 886.279 705.713 886.279 739.707" stroke="var(--stroke-0, #D2AD8D)" stroke-width="1.41077"/>
<path id="Ellipse 45" d="M1145.14 511.387C1115.15 511.387 1085.46 517.293 1057.76 528.767C1030.06 540.241 1004.89 557.059 983.69 578.261C962.489 599.463 945.671 624.633 934.196 652.334C922.722 680.035 916.816 709.726 916.816 739.709" stroke="var(--stroke-0, #D2AD8D)" stroke-width="1.41077"/>
<path id="Ellipse 47" d="M1145.14 541.928C1119.17 541.928 1093.45 547.044 1069.45 556.983C1045.45 566.923 1023.65 581.492 1005.28 599.858C986.918 618.224 972.349 640.028 962.409 664.024C952.47 688.02 947.354 713.74 947.354 739.713" stroke="var(--stroke-0, #D2AD8D)" stroke-width="1.41077"/>
<path id="Ellipse 49" d="M1145.14 403.457C1123.17 403.457 1101.43 407.783 1081.14 416.188C1060.84 424.593 1042.41 436.913 1026.88 452.443C1011.35 467.974 999.026 486.411 990.621 506.702C982.216 526.994 977.89 548.742 977.89 570.705" stroke="var(--stroke-0, #D2AD8D)" stroke-width="1.41077"/>
<path id="Ellipse 51" d="M1145.14 433.998C1127.19 433.998 1109.41 437.534 1092.82 444.405C1076.24 451.275 1061.17 461.345 1048.47 474.04C1035.78 486.735 1025.71 501.806 1018.84 518.392C1011.96 534.979 1008.43 552.756 1008.43 570.709" stroke="var(--stroke-0, #D2AD8D)" stroke-width="1.41077"/>
<path id="Ellipse 53" d="M1145.14 464.534C1131.2 464.534 1117.39 467.28 1104.51 472.616C1091.63 477.951 1079.92 485.772 1070.06 495.631C1060.2 505.49 1052.38 517.195 1047.05 530.077C1041.71 542.958 1038.96 556.765 1038.96 570.708" stroke="var(--stroke-0, #D2AD8D)" stroke-width="1.41077"/>
<path id="Ellipse 55" d="M1145.14 450.313C1107.13 450.313 1069.5 457.798 1034.39 472.342C999.281 486.885 967.378 508.202 940.505 535.075C913.632 561.948 892.315 593.851 877.772 628.962C863.228 664.073 855.743 701.705 855.743 739.709" stroke="var(--stroke-0, #D2AD8D)" stroke-width="1.41077"/>
<path id="Ellipse 57" d="M1145.14 419.778C1103.13 419.778 1061.52 428.053 1022.71 444.131C983.891 460.209 948.622 483.775 918.913 513.484C889.205 543.192 865.638 578.462 849.56 617.278C833.482 656.094 825.207 697.696 825.207 739.711" stroke="var(--stroke-0, #D2AD8D)" stroke-width="1.41077"/>
</g>
</svg>
