<svg preserveAspectRatio="none" width="100%" height="100%" overflow="visible" style="display: block;" viewBox="0 0 1465.78 987.347" fill="none" xmlns="http://www.w3.org/2000/svg">
<g id="Group 2085663160">
<path id="Ellipse 5" d="M381.712 407.846C415.706 407.846 449.367 414.542 480.773 427.55C512.179 440.559 540.716 459.627 564.753 483.664C588.79 507.701 607.858 536.238 620.867 567.644C633.876 599.05 640.571 632.711 640.571 666.705" stroke="var(--stroke-0, #D2AD8D)" stroke-width="1.41077"/>
<path id="Ellipse 15" d="M381.712 438.385C411.696 438.385 441.386 444.291 469.087 455.765C496.789 467.239 521.959 484.057 543.16 505.259C564.362 526.461 581.18 551.631 592.654 579.332C604.129 607.033 610.034 636.724 610.034 666.707" stroke="var(--stroke-0, #D2AD8D)" stroke-width="1.41077"/>
<path id="Ellipse 17" d="M381.713 468.928C407.687 468.928 433.406 474.044 457.402 483.984C481.399 493.923 503.202 508.492 521.568 526.858C539.934 545.224 554.503 567.028 564.443 591.024C574.382 615.02 579.498 640.74 579.498 666.713" stroke="var(--stroke-0, #D2AD8D)" stroke-width="1.41077"/>
<path id="Ellipse 19" d="M381.713 330.455C403.677 330.455 425.425 334.781 445.716 343.186C466.008 351.591 484.445 363.911 499.976 379.441C515.506 394.972 527.825 413.409 536.23 433.7C544.635 453.992 548.961 475.74 548.961 497.704" stroke="var(--stroke-0, #D2AD8D)" stroke-width="1.41077"/>
<path id="Ellipse 21" d="M381.713 360.998C399.667 360.998 417.444 364.534 434.03 371.405C450.617 378.275 465.688 388.345 478.383 401.04C491.078 413.735 501.148 428.806 508.018 445.392C514.888 461.979 518.424 479.756 518.424 497.709" stroke="var(--stroke-0, #D2AD8D)" stroke-width="1.41077"/>
<path id="Ellipse 23" d="M381.715 391.534C395.658 391.534 409.465 394.28 422.347 399.616C435.228 404.951 446.933 412.772 456.792 422.631C466.651 432.49 474.472 444.195 479.808 457.077C485.143 469.958 487.89 483.765 487.89 497.708" stroke="var(--stroke-0, #D2AD8D)" stroke-width="1.41077"/>
<path id="Ellipse 7" d="M381.714 377.315C419.718 377.315 457.35 384.8 492.461 399.344C527.572 413.887 559.475 435.204 586.348 462.077C613.221 488.95 634.537 520.853 649.081 555.964C663.624 591.075 671.11 628.707 671.11 666.711" stroke="var(--stroke-0, #D2AD8D)" stroke-width="1.41077"/>
<path id="Ellipse 9" d="M381.714 346.776C423.728 346.776 465.331 355.051 504.147 371.129C542.963 387.207 578.232 410.773 607.94 440.482C637.649 470.19 661.215 505.46 677.293 544.276C693.371 583.092 701.647 624.695 701.647 666.709" stroke="var(--stroke-0, #D2AD8D)" stroke-width="1.41077"/>
<path id="Ellipse 11" d="M381.714 31.2405C427.738 31.2405 473.312 40.3057 515.833 57.9185C558.354 75.5313 596.989 101.347 629.533 133.891C662.078 166.435 687.893 205.071 705.506 247.592C723.119 290.113 732.184 335.686 732.184 381.711" stroke="var(--stroke-0, #D2AD8D)" stroke-width="1.41077"/>
<path id="Ellipse 13" d="M381.712 0.705385C431.747 0.705383 481.292 10.5604 527.518 29.7078C573.744 48.8552 615.745 76.92 651.125 112.3C686.505 147.68 714.57 189.681 733.717 235.907C752.865 282.133 762.72 331.678 762.72 381.712" stroke="var(--stroke-0, #D2AD8D)" stroke-width="1.41077"/>
<path id="Ellipse 43" d="M1145.14 407.846C1111.14 407.846 1077.48 414.542 1046.08 427.55C1014.67 440.559 986.135 459.627 962.098 483.664C938.06 507.701 918.993 536.238 905.984 567.644C892.975 599.05 886.279 632.711 886.279 666.705" stroke="var(--stroke-0, #D2AD8D)" stroke-width="1.41077"/>
<path id="Ellipse 45" d="M1145.14 438.385C1115.15 438.385 1085.46 444.291 1057.76 455.765C1030.06 467.239 1004.89 484.057 983.69 505.259C962.489 526.461 945.671 551.631 934.196 579.332C922.722 607.033 916.816 636.724 916.816 666.707" stroke="var(--stroke-0, #D2AD8D)" stroke-width="1.41077"/>
<path id="Ellipse 47" d="M1145.14 468.928C1119.16 468.928 1093.45 474.044 1069.45 483.984C1045.45 493.923 1023.65 508.492 1005.28 526.858C986.917 545.224 972.348 567.028 962.409 591.024C952.469 615.02 947.353 640.74 947.353 666.713" stroke="var(--stroke-0, #D2AD8D)" stroke-width="1.41077"/>
<path id="Ellipse 49" d="M1145.14 330.455C1123.17 330.455 1101.43 334.781 1081.14 343.186C1060.84 351.591 1042.41 363.911 1026.88 379.441C1011.35 394.972 999.026 413.409 990.621 433.7C982.216 453.992 977.89 475.74 977.89 497.704" stroke="var(--stroke-0, #D2AD8D)" stroke-width="1.41077"/>
<path id="Ellipse 51" d="M1145.14 360.998C1127.19 360.998 1109.41 364.534 1092.82 371.405C1076.24 378.275 1061.17 388.345 1048.47 401.04C1035.78 413.735 1025.71 428.806 1018.84 445.392C1011.97 461.979 1008.43 479.756 1008.43 497.709" stroke="var(--stroke-0, #D2AD8D)" stroke-width="1.41077"/>
<path id="Ellipse 53" d="M1145.14 391.534C1131.2 391.534 1117.39 394.28 1104.51 399.616C1091.63 404.951 1079.92 412.772 1070.06 422.631C1060.2 432.49 1052.38 444.195 1047.05 457.077C1041.71 469.958 1038.96 483.765 1038.96 497.708" stroke="var(--stroke-0, #D2AD8D)" stroke-width="1.41077"/>
<path id="Ellipse 55" d="M1145.14 377.315C1107.13 377.315 1069.5 384.8 1034.39 399.344C999.281 413.887 967.378 435.204 940.505 462.077C913.632 488.95 892.315 520.853 877.772 555.964C863.228 591.075 855.743 628.707 855.743 666.711" stroke="var(--stroke-0, #D2AD8D)" stroke-width="1.41077"/>
<path id="Ellipse 57" d="M1145.14 346.776C1103.13 346.776 1061.52 355.051 1022.71 371.129C983.891 387.207 948.622 410.773 918.913 440.482C889.205 470.19 865.638 505.46 849.56 544.276C833.482 583.092 825.207 624.695 825.207 666.709" stroke="var(--stroke-0, #D2AD8D)" stroke-width="1.41077"/>
</g>
</svg>
