<svg preserveAspectRatio="none" width="100%" height="100%" overflow="visible" style="display: block;" viewBox="0 0 25.6189 26.6667" fill="none" xmlns="http://www.w3.org/2000/svg">
<g id="Vector">
<path d="M18.1797 9.54145C20.7858 10.3888 22.92 11.8324 24.224 13.6192C24.3761 13.8285 24.5175 14.0415 24.6456 14.2588C25.2726 15.3154 25.6189 16.4753 25.6189 17.6892L25.6178 17.6914C25.6175 22.6408 19.871 26.6667 12.8083 26.6667C5.7458 26.6665 0.000284978 22.6407 0 17.6914C0 16.4777 0.345319 15.3175 0.972164 14.261C1.58811 15.0542 2.36481 15.7884 3.29023 16.4445C5.79201 18.218 9.099 19.2079 12.6192 19.242H12.6215C12.6834 19.243 12.7464 19.2442 12.8094 19.2442C12.8725 19.2442 12.9364 19.244 12.9985 19.242C14.9435 19.2089 16.7736 18.6645 18.1797 17.6981C18.2097 17.6782 18.2387 17.6568 18.2687 17.6358C19.769 16.5722 20.5956 15.1456 20.5956 13.6192C20.5954 12.093 19.7688 10.6673 18.2687 9.60374C18.2387 9.58277 18.2097 9.56243 18.1797 9.54145Z" fill="url(#paint0_linear_0_71)"/>
<path d="M12.8083 0C19.871 0 25.6173 4.0259 25.6178 8.97528C25.6178 10.1891 25.2714 11.3491 24.6445 12.4057C24.0286 11.6128 23.2526 10.8791 22.3275 10.2233C19.7797 8.41752 16.3987 7.42248 12.8072 7.42248C12.7433 7.42249 12.6799 7.42371 12.617 7.42471C10.6722 7.45783 8.84301 8.00217 7.43695 8.9686C7.40699 8.98858 7.37792 9.00993 7.34796 9.03089C5.8478 10.0945 5.02211 11.5212 5.02211 13.0475C5.02222 14.5735 5.84802 15.9994 7.34796 17.0629C7.37787 17.0839 7.40705 17.1043 7.43695 17.1252C4.83121 16.2779 2.69655 14.8352 1.39262 13.0486C1.24038 12.8393 1.09925 12.6252 0.971052 12.4079C0.345238 11.3493 0 10.19 0 8.97528C0.000429548 4.026 5.74589 0.00016553 12.8083 0Z" fill="url(#paint1_linear_0_71)"/>
</g>
<defs>
<linearGradient id="paint0_linear_0_71" x1="12.8094" y1="0" x2="12.8094" y2="26.6667" gradientUnits="userSpaceOnUse">
<stop stop-color="#124026"/>
<stop offset="1" stop-color="#4A926B"/>
</linearGradient>
<linearGradient id="paint1_linear_0_71" x1="12.8094" y1="0" x2="12.8094" y2="26.6667" gradientUnits="userSpaceOnUse">
<stop stop-color="#124026"/>
<stop offset="1" stop-color="#4A926B"/>
</linearGradient>
</defs>
</svg>
