<svg width="155" height="62" viewBox="0 0 155 62" fill="none" xmlns="http://www.w3.org/2000/svg">
<g id="Frame 2087328524">
<g id="Frame 2087328507">
<g id="MacBook Air - 27">
<g id="Frame 2087328529" opacity="0.4">
<g id="zawya-logo-vector 1">
<path id="Vector" d="M104.768 52.8793L104.839 48.4424H107.121C107.953 48.4424 108.405 48.9589 108.405 49.5927C108.405 50.1326 108.048 50.5083 107.644 50.6022C108.12 50.6726 108.5 51.1421 108.5 51.6821C108.5 52.3863 108.048 52.8793 107.121 52.8793H104.768ZM107.62 49.7101C107.62 49.4049 107.406 49.1467 107.002 49.1467H105.647V50.297H107.002C107.359 50.297 107.62 50.0387 107.62 49.7101ZM107.692 51.5882C107.692 51.283 107.478 50.9778 107.026 50.9778H105.647V52.222H107.026C107.43 52.1985 107.692 51.9638 107.692 51.5882ZM110.449 52.8793V51.0482L108.714 48.4424H109.617L110.83 50.3439L112.042 48.4424H112.945L111.21 51.0482V52.8793H110.449ZM117.653 52.8793L116.654 51.236H115.846V52.8793H115.061V48.4424H117.011C117.914 48.4424 118.485 49.0058 118.485 49.8275C118.485 50.6256 117.962 51.0247 117.415 51.1186L118.508 52.8558H117.653V52.8793ZM117.748 49.8509C117.748 49.4284 117.439 49.1467 116.987 49.1467H115.893V50.5317H116.987C117.439 50.5317 117.748 50.25 117.748 49.8509ZM119.436 52.8793V48.4424H122.526V49.1467H120.22V50.297H122.455V51.0013H120.22V52.2455H122.502V52.9497L119.436 52.8793ZM123.477 52.8793V48.4424H126.567V49.1467H124.285V50.297H126.52V51.0013H124.285V52.9263H123.477V52.8793ZM127.376 48.4424H128.184V52.8793H127.376V48.4424ZM132.582 52.8793L130.228 49.7101V52.8793H129.468V48.4424H130.276L132.558 51.5177V48.4424H133.367V52.8793H132.582ZM134.626 48.4424H135.387V52.8793H134.626V48.4424ZM137.598 52.8793V49.1467H136.243V48.4424H139.738V49.1467H138.383V52.8793H137.598ZM140.57 48.4424H141.378V52.8793H140.57V48.4424ZM143.874 52.8793L142.115 48.4424H143.018L144.373 52.0342L145.728 48.4424H146.632L144.873 52.8793H143.874Z" fill="white"/>
<path id="Vector_2" d="M80.3291 44.0055L84.0615 32.8545L87.8176 44.0055H80.3291Z" fill="white"/>
<path id="Vector_3" d="M134.697 44.0055L138.453 32.8545L142.186 44.0055H134.697Z" fill="white"/>
<path id="Vector_4" d="M101.463 44.0055L103.721 34.6387L106.051 44.0055H101.463Z" fill="white"/>
<path id="Vector_5" d="M146.609 44.0054V6.6084L5.23047 44.0054H61.834V40.9301L68.2765 32.4083H61.834V29.0513H73.4352V32.1032L66.969 40.6484H73.6016V44.0054H75.8838L81.5894 29.0513H86.5341L92.2397 44.0054H97.3271L92.9766 29.0513H97.3509L99.6569 39.0285L102.248 29.0513H105.244L107.835 39.0285L110.117 29.0513H114.515L110.188 44.0054H121.385V37.9956L115.632 29.0513H120.03L123.335 34.5681L126.592 29.0513H131.013L125.308 37.9956V44.0054H130.276L135.982 29.0513H140.927L146.609 44.0054Z" fill="white"/>
<path id="Vector_6" d="M147.44 48.8179C147.512 48.8179 147.607 48.7475 147.607 48.6536C147.607 48.5597 147.535 48.4893 147.44 48.4893H147.25V49.0292H147.321V48.8179H147.44L147.607 49.0292H147.678L147.44 48.8179ZM147.535 48.6771C147.535 48.7475 147.464 48.7944 147.416 48.7944H147.25V48.5832H147.416C147.464 48.5362 147.535 48.6066 147.535 48.6771Z" fill="white"/>
<path id="Vector_7" d="M147.369 49.2408C147.108 49.2408 146.894 49.0295 146.894 48.7713C146.894 48.513 147.108 48.3018 147.369 48.3018C147.631 48.3018 147.844 48.513 147.844 48.7713C147.868 49.0295 147.631 49.2408 147.369 49.2408ZM147.369 48.3487C147.155 48.3487 146.941 48.5365 146.941 48.7713C146.941 48.9826 147.131 49.1938 147.369 49.1938C147.583 49.1938 147.797 49.006 147.797 48.7713C147.797 48.5365 147.607 48.3487 147.369 48.3487Z" fill="white"/>
</g>
</g>
</g>
</g>
</g>
</svg>
