<svg width="99" height="27" viewBox="0 0 99 27" fill="none" xmlns="http://www.w3.org/2000/svg">
<g id="Frame 2087328524">
<g id="Frame 2087328507">
<g id="MacBook Air - 27">
<g id="Frame 2087328529" opacity="0.4">
<g id="Yahoo!_(2019) 1" clip-path="url(#clip0_490_22803)">
<path id="path1" d="M35.5074 0V21.4581H40.8804V13.3389C40.8804 12.1974 41.5547 11.0613 42.8486 11.0613C44.1197 11.0613 44.6809 12.1804 44.6809 13.3389V21.4581H50.0145V12.0501C50.0145 8.62676 48.0989 6.23116 44.8294 6.23116C42.1565 6.23116 40.8804 7.97773 40.8804 7.97773V0H35.5074ZM92.6008 0L86.9001 13.4679H93.3234L99 0H92.6008ZM24.5023 6.22926C20.077 6.22926 17.2796 10.1323 17.2796 14.0191C17.2796 18.3929 20.3466 21.8605 24.4184 21.8605C27.4558 21.8605 28.6009 20.0407 28.6009 20.0407V21.4583H33.7381V6.57287H28.6009V7.9262C28.6009 7.9262 27.3232 6.22926 24.5023 6.22926ZM59.1755 6.23099C54.1077 6.23099 51.09 10.0208 51.09 14.0811C51.09 18.7018 54.7437 21.8605 59.1947 21.8605C63.5087 21.8605 67.2836 18.845 67.2836 14.1585C67.2836 9.03062 63.3312 6.23099 59.1755 6.23099ZM76.235 6.23099C71.1672 6.23099 68.1495 10.0208 68.1495 14.0811C68.1495 18.7018 71.8032 21.8605 76.2542 21.8605C80.5683 21.8605 84.3432 18.845 84.3432 14.1585C84.3432 9.03062 80.3908 6.23099 76.235 6.23099ZM0 6.57287L6.48566 21.5871L4.12204 27H9.89304L18.5283 6.57287H12.7936L9.31934 15.2017L5.88992 6.57287H0ZM25.595 11.013C27.6369 11.013 28.6907 12.6018 28.6907 14.0355C28.6907 15.5793 27.5617 17.0943 25.595 17.0943C23.965 17.0943 22.4921 15.7844 22.4921 14.1013C22.4921 12.3943 23.6768 11.013 25.595 11.013ZM59.2239 11.0567C61.014 11.0567 62.2526 12.523 62.2526 14.0866C62.2526 15.4203 61.0984 17.0652 59.2239 17.0652C57.5062 17.0652 56.2171 15.7101 56.2171 14.072C56.2171 12.4939 57.2888 11.0567 59.2239 11.0567ZM76.2834 11.0567C78.0735 11.0567 79.3121 12.523 79.3121 14.0866C79.3121 15.4203 78.158 17.0652 76.2834 17.0652C74.5657 17.0652 73.2766 15.7101 73.2766 14.072C73.2766 12.4939 74.3484 11.0567 76.2834 11.0567ZM88.583 14.7567C86.6124 14.7567 85.0151 16.3276 85.0151 18.2655C85.0151 20.2033 86.6124 21.7742 88.583 21.7742C90.5535 21.7742 92.1508 20.2033 92.1508 18.2655C92.1508 16.3276 90.5535 14.7567 88.583 14.7567Z" fill="white"/>
</g>
</g>
</g>
</g>
</g>
<defs>
<clipPath id="clip0_490_22803">
<rect width="99" height="27" fill="white"/>
</clipPath>
</defs>
</svg>
