<svg preserveAspectRatio="none" width="100%" height="100%" overflow="visible" style="display: block;" viewBox="0 0 1716.66 237.983" fill="none" xmlns="http://www.w3.org/2000/svg">
<path id="Vector 38" d="M0.0984574 162.415L21.0173 159.023C21.6057 158.928 22.2063 158.937 22.7912 159.052L37.8201 161.999C39.1741 162.264 40.5778 161.962 41.7027 161.163L58.3007 149.374C58.9143 148.939 59.6179 148.646 60.3596 148.518L82.2995 144.734C90.6873 142.671 107.799 138.281 109.141 137.22C110.439 136.194 126.75 124.335 135.534 117.959C136.106 117.543 136.759 117.254 137.451 117.108L156.916 113.005C157.219 112.941 157.515 112.85 157.8 112.732L198.156 96.0522C199.429 95.5263 200.861 95.5447 202.12 96.1032L222.779 105.271C223.613 105.641 224.533 105.778 225.439 105.665L244.935 103.248C245.273 103.206 245.606 103.13 245.928 103.021L274.067 93.5061C274.729 93.2825 275.337 92.9235 275.852 92.4522L296.752 73.336C296.936 73.1677 297.133 73.0133 297.339 72.8741L320.3 57.4243C321.253 56.7831 322.402 56.5281 323.537 56.3554C330.766 55.2557 342.655 45.4321 343.581 44.1304C344.388 42.997 348.121 41.2202 350.939 40.0283C352.132 39.5236 353.476 39.5449 354.673 40.0405L363.626 43.7476C364.237 44.0004 364.891 44.1304 365.552 44.1304H388.082C390.297 44.1304 392.252 45.5791 392.897 47.6985L399.851 70.5609C400.332 72.1406 401.557 73.3841 403.129 73.8885L408.103 75.4838C409.477 75.9247 410.975 75.7541 412.215 75.0153L417.146 72.0782C418.832 71.074 420.947 71.1411 422.566 72.2501L433.703 79.8798C434.013 80.0927 434.347 80.27 434.697 80.4084L446.439 85.049C447.195 85.3481 447.868 85.8261 448.4 86.4423L454.473 93.483C455.429 94.5914 456.82 95.2286 458.284 95.2286H462.369C463.131 95.2286 463.884 95.402 464.57 95.7356L479.009 102.759C479.587 103.04 480.106 103.43 480.537 103.906L503.907 129.706L521.543 145.207L530.484 153.4C530.95 153.827 531.492 154.163 532.083 154.389L535.319 155.629C535.64 155.753 535.974 155.843 536.314 155.898L546.307 157.518C546.573 157.561 546.842 157.583 547.112 157.583H549.165C549.483 157.583 549.8 157.613 550.112 157.673L554.256 158.467L559.574 159.168C560.485 159.288 561.345 159.655 562.063 160.229L569.1 165.866C570.895 167.304 573.436 167.342 575.273 165.959L577.58 164.222C577.874 164.001 578.142 163.748 578.381 163.469L579.556 162.093C580.906 160.512 583.09 159.923 585.051 160.613L589.346 162.121L595.626 164.458C596.188 164.666 596.782 164.773 597.381 164.773H601.732C602.14 164.773 602.547 164.724 602.943 164.625L609.476 163.005L613.368 161.558C615.319 160.832 617.515 161.382 618.894 162.942L644.771 192.228C646.51 194.196 649.853 195.481 652.452 195.856C661.507 197.163 680.509 201.903 680.773 201.903C681.025 201.903 683.655 202.069 685.898 202.214C687.185 202.297 688.454 201.884 689.45 201.064C692.241 198.764 696.012 195.714 696.291 195.714C696.569 195.714 699.949 194.699 702.449 193.933C703.358 193.654 704.168 193.12 704.786 192.397L706.691 190.165C707.295 189.458 708.082 188.932 708.966 188.646L711.577 187.799C712.547 187.484 713.59 187.472 714.567 187.763L731.205 192.719C731.963 192.945 732.658 193.346 733.232 193.891L745.867 205.876C746.088 206.085 746.326 206.274 746.581 206.44L752.897 210.56C754.224 211.427 755.882 211.617 757.371 211.073L765.074 208.263C765.627 208.061 766.211 207.958 766.799 207.958H772.861C773.532 207.958 774.197 208.093 774.816 208.354L779.814 210.461C780.05 210.56 780.279 210.678 780.498 210.813L789.207 216.176C789.7 216.479 790.136 216.865 790.498 217.317L797 225.445C797.222 225.722 797.413 226.022 797.572 226.339L802.746 236.687C803.24 237.675 804.684 237.562 805.019 236.51L811.902 214.898C812.47 213.114 813.982 211.792 815.826 211.468L819.63 210.8C820.124 210.714 820.602 210.553 821.049 210.325L832.661 204.391C833.668 203.877 834.818 203.716 835.927 203.935L839.054 204.553C840.26 204.792 841.511 204.58 842.572 203.959L847.083 201.318C847.988 200.788 848.705 199.989 849.133 199.031L853.631 188.984C853.864 188.465 854.182 187.99 854.573 187.577C857.495 184.485 862.37 179.248 862.37 178.918C862.37 178.585 868.305 174.838 871.803 172.678C872.223 172.418 872.678 172.223 873.155 172.099C874.942 171.634 877.595 170.962 877.888 170.962C878.146 170.962 880.245 169.389 881.962 168.06C882.858 167.367 883.956 166.983 885.089 166.983H886.887C887.59 166.983 888.285 166.836 888.928 166.551L895.922 163.447L900.535 161.237L904.284 159.657C904.58 159.532 904.886 159.436 905.2 159.37C907.407 158.907 911.127 158.143 911.439 158.143C911.673 158.143 913.418 158.143 915.021 158.143C916.228 158.143 917.394 158.577 918.308 159.364L918.726 159.725C920.382 161.153 922.77 161.348 924.636 160.208L950.443 144.441L955.769 141.821C956.405 141.508 956.968 141.065 957.42 140.52L958.517 139.199C959.262 138.301 960.296 137.69 961.442 137.471L963.126 137.148C963.887 137.002 964.671 137.034 965.418 137.241L969.861 138.474C971.368 138.891 972.984 138.585 974.233 137.645L986.433 128.46C986.763 128.212 987.061 127.924 987.321 127.603L996.067 116.781C996.404 116.364 996.806 116.004 997.256 115.714L1004.13 111.29L1021.99 102.304C1022.38 102.107 1022.74 101.86 1023.07 101.569L1033.61 92.1986C1035.07 90.9014 1037.14 90.5648 1038.94 91.335L1045.69 94.2331C1046.75 94.6873 1047.93 94.7651 1049.04 94.4537L1051.8 93.6758C1052.97 93.3476 1054.22 93.4521 1055.31 93.97L1070.46 101.123L1087.82 106.826C1090.21 107.61 1092.81 106.511 1093.91 104.25L1102.67 86.2813C1103.46 84.6735 1105.04 83.6026 1106.82 83.4683L1113.5 82.9654C1114.89 82.8606 1116.27 83.3382 1117.29 84.2842L1123.95 90.4227C1125.09 91.4711 1126.64 91.9386 1128.17 91.6907L1136.92 90.2683C1137.71 90.1399 1138.46 89.8245 1139.11 89.3485L1147.66 83.0278C1147.87 82.8769 1148.08 82.7498 1148.28 82.5896C1151.1 80.2988 1158.72 65.6477 1159.04 65.3075C1159.35 64.9798 1164.59 61.0918 1170.15 59.704C1171 59.4902 1171.82 59.1291 1172.5 58.566L1191.17 43.0709L1210.42 24.038C1211 23.4601 1211.72 23.034 1212.5 22.797L1227.71 18.217C1228.51 17.9785 1229.23 17.5484 1229.81 16.9649L1236.2 10.6097C1236.38 10.4298 1236.54 10.2371 1236.7 10.0321C1237.73 8.63072 1239.51 6.24745 1239.82 5.91933C1240.14 5.58225 1244.55 3.87961 1247.02 2.95538C1247.26 2.86812 1247.49 2.79956 1247.74 2.74827C1251.34 1.99085 1257.95 0.61515 1258.28 0.61515C1258.56 0.61515 1259.63 15.7601 1260.38 20.4388C1260.52 21.2854 1261.32 22.1111 1262.04 22.5693C1262.57 22.9033 1263.23 22.9387 1263.79 22.663L1283.16 13.1376C1285.8 11.8406 1288.98 13.0695 1290.06 15.8022L1309.97 66.1138C1310.44 67.3074 1311.35 68.2754 1312.51 68.8198L1321.02 72.8051C1321.68 73.1155 1322.27 73.5666 1322.74 74.1271L1331.38 84.4205C1331.57 84.6521 1331.79 84.8658 1332.02 85.0588L1353.92 103.222C1355.84 104.811 1358.63 104.761 1360.48 103.104L1361.14 102.518C1362.14 101.629 1363.46 101.196 1364.79 101.323C1366.37 101.475 1367.93 100.834 1368.94 99.612L1371.78 96.1938C1372.68 95.1099 1373.99 94.4528 1375.4 94.3822L1379.84 94.1593C1381.22 94.0901 1382.51 93.4581 1383.41 92.4111L1387.81 87.2849C1389.05 85.8354 1391.16 85.505 1392.79 86.5056C1394.13 87.3274 1395.83 87.2649 1397.1 86.3471L1401.65 83.0672C1402.51 82.4492 1403.53 82.1166 1404.59 82.1166C1409.03 82.1166 1415.67 82.1166 1415.97 82.1166C1416.22 82.1166 1418.76 80.9222 1420.88 79.8968C1422.04 79.339 1423.36 79.2323 1424.59 79.6091L1432.02 81.8952C1432.5 82.0419 1432.95 82.259 1433.37 82.5393L1449.91 93.7447C1450.21 93.9483 1450.49 94.1838 1450.74 94.4471L1462.61 106.963C1463.37 107.763 1464.37 108.291 1465.46 108.467L1467.85 108.856C1468.75 109.001 1469.57 109.435 1470.19 110.091C1471.16 111.113 1472.59 111.571 1473.97 111.306L1474.12 111.278C1475.52 111.008 1476.98 111.44 1478.01 112.437L1479.93 114.296C1480.87 115.203 1482.12 115.71 1483.43 115.71H1485.23C1486.77 115.71 1488.21 116.465 1489.08 117.729C1490.24 119.418 1492.38 120.149 1494.33 119.53L1498.14 118.325C1498.92 118.081 1499.76 118.34 1500.26 118.975C1500.95 119.846 1502.23 119.967 1503.07 119.243L1519.61 104.977C1519.85 104.766 1520.12 104.579 1520.4 104.418L1529.15 99.4226C1529.74 99.0864 1530.26 98.6347 1530.67 98.0947L1532.87 95.1938C1533.22 94.7301 1533.65 94.331 1534.14 94.0142L1538.85 90.9569L1549.34 84.8943C1550.9 83.9958 1552.81 83.9936 1554.37 84.8884L1554.47 84.945C1555.74 85.675 1557.26 85.8156 1558.64 85.3301L1561.95 84.1691C1562.48 83.9808 1563.05 83.8846 1563.61 83.8846H1565.93C1566.6 83.8846 1567.27 83.7502 1567.89 83.4894L1570.21 82.5118C1570.83 82.251 1571.49 82.1166 1572.16 82.1166C1573.02 82.1166 1574.04 82.1166 1574.5 82.1166C1575.34 82.1166 1577.02 78.1384 1577.44 78.1384C1577.53 78.1384 1577.72 78.1146 1577.96 78.077C1579.24 77.8729 1580.36 77.0935 1581.09 76.0145L1583.06 73.1038C1583.74 72.1059 1584.87 71.5082 1586.07 71.5082C1587.23 71.5082 1588.32 70.9539 1589.01 70.0163L1594.65 62.2929C1595.68 60.8783 1597.37 60.1021 1599.12 60.2436L1605.35 60.7488C1606.55 60.8463 1607.75 60.5089 1608.72 59.7981L1616.5 54.1203C1617.44 53.4348 1618.73 53.5022 1619.6 54.2818C1620.45 55.0503 1621.72 55.128 1622.66 54.4688L1626.5 51.7699C1627.05 51.3831 1627.7 51.1756 1628.38 51.1756C1629.32 51.1756 1630.22 50.7691 1630.84 50.0603L1632.88 47.7247C1634.12 46.314 1636.03 45.7073 1637.86 46.1505L1638.89 46.4028C1639.84 46.6329 1640.83 46.5836 1641.75 46.2609L1645.09 45.0892C1646.09 44.7358 1647.19 44.711 1648.21 45.0185L1650.25 45.6347C1651.68 46.0648 1653.22 45.8207 1654.51 45.0795C1655.43 44.5529 1656.33 44.1033 1656.7 44.1033C1657.3 44.1033 1664.16 45.2735 1668.61 46.0496C1669.6 46.2211 1670.61 46.0969 1671.52 45.6914L1693.35 36.0037C1693.8 35.8056 1694.21 35.5447 1694.58 35.228C1696.96 33.2056 1700.96 29.8431 1701.58 29.5168C1702 29.293 1703.23 30.4745 1704.4 31.7829C1705.49 33.0037 1707.24 33.4329 1708.72 32.7264C1709.98 32.1211 1711.48 32.3341 1712.53 33.2667L1716.25 36.5891" stroke="var(--stroke-0, #F8F2EC)" stroke-width="1.2303"/>
</svg>
