<svg preserveAspectRatio="none" width="100%" height="100%" overflow="visible" style="display: block;" viewBox="0 0 19.9239 20" fill="none" xmlns="http://www.w3.org/2000/svg">
<g id="vector">
<path d="M10.7119 0.75C10.7119 0.335786 10.3761 0 9.96192 0C9.5477 0 9.21192 0.335786 9.21192 0.75V2.02594C5.00112 2.31817 1.47053 5.05186 0.10333 8.80383C-0.319919 9.96534 0.624903 11.003 1.70438 11.003H18.2195C19.299 11.003 20.2438 9.96534 19.8206 8.80383C18.4534 5.05183 14.9228 2.31813 10.7119 2.02593V0.75Z" fill="url(#paint0_linear_0_13)"/>
<path d="M10.7121 13.25C10.7121 12.8358 10.3763 12.5 9.96206 12.5C9.54785 12.5 9.21206 12.8358 9.21206 13.25V17.3267C9.21206 17.9747 8.68676 18.5 8.03878 18.5C7.47949 18.5 6.99796 18.1052 6.88828 17.5568L6.69749 16.6029C6.61626 16.1967 6.22114 15.9333 5.81497 16.0146C5.4088 16.0958 5.14539 16.4909 5.22662 16.8971L5.4174 17.851C5.66732 19.1006 6.76447 20 8.03878 20C9.51519 20 10.7121 18.8031 10.7121 17.3267V13.25Z" fill="url(#paint1_linear_0_13)"/>
</g>
<defs>
<linearGradient id="paint0_linear_0_13" x1="9.96196" y1="0" x2="9.96196" y2="20" gradientUnits="userSpaceOnUse">
<stop/>
<stop offset="1" stop-color="#666666"/>
</linearGradient>
<linearGradient id="paint1_linear_0_13" x1="9.96196" y1="0" x2="9.96196" y2="20" gradientUnits="userSpaceOnUse">
<stop/>
<stop offset="1" stop-color="#666666"/>
</linearGradient>
</defs>
</svg>
