<svg preserveAspectRatio="none" width="100%" height="100%" overflow="visible" style="display: block;" viewBox="0 0 18 20.1038" fill="none" xmlns="http://www.w3.org/2000/svg">
<path id="vector" fill-rule="evenodd" clip-rule="evenodd" d="M8.4466 0.0898042C8.80582 -0.0299348 9.19418 -0.0299346 9.5534 0.0898042L16.8034 2.50647C17.518 2.74467 18 3.41341 18 4.16667V9.85825C18 12.5956 16.8165 14.616 15.1412 16.2056C13.4942 17.7684 11.3404 18.9434 9.3561 20.0139C9.13384 20.1338 8.86616 20.1338 8.6439 20.0139C6.65956 18.9434 4.5058 17.7684 2.85876 16.2056C1.18351 14.616 0 12.5956 0 9.85825V4.16667C0 3.41341 0.482002 2.74467 1.1966 2.50647L8.4466 0.0898042ZM12.2803 7.97662C12.5732 7.68373 12.5732 7.20885 12.2803 6.91596C11.9874 6.62307 11.5126 6.62307 11.2197 6.91596L8 10.1356L6.78033 8.91596C6.48744 8.62307 6.01256 8.62307 5.71967 8.91596C5.42678 9.20885 5.42678 9.68373 5.71967 9.97662L7.46967 11.7266C7.61033 11.8673 7.80109 11.9463 8 11.9463C8.19892 11.9463 8.38968 11.8673 8.53033 11.7266L12.2803 7.97662Z" fill="url(#paint0_linear_0_12)"/>
<defs>
<linearGradient id="paint0_linear_0_12" x1="9" y1="0" x2="9" y2="20.1038" gradientUnits="userSpaceOnUse">
<stop/>
<stop offset="1" stop-color="#666666"/>
</linearGradient>
</defs>
</svg>
